<svg width="128" height="128" viewBox="0 0 128 128" fill="none" xmlns="http://www.w3.org/2000/svg">
<path d="M12.7998 64C12.7998 77.5791 18.1941 90.6021 27.7959 100.204C37.3978 109.806 50.4207 115.2 63.9998 115.2C77.5789 115.2 90.6018 109.806 100.204 100.204C109.806 90.6021 115.2 77.5791 115.2 64C115.2 50.421 109.806 37.398 100.204 27.7962C90.6018 18.1943 77.5789 12.8 63.9998 12.8C50.4207 12.8 37.3978 18.1943 27.7959 27.7962C18.1941 37.398 12.7998 50.421 12.7998 64V64Z" fill="#271B72"/>
<path opacity="0.15" d="M51.8398 108.951C51.8398 109.486 53.539 109.999 56.5636 110.377C59.5882 110.755 63.6904 110.967 67.9678 110.967C72.2453 110.967 76.3475 110.755 79.3721 110.377C82.3966 109.999 84.0958 109.486 84.0958 108.951C84.0958 108.416 82.3966 107.904 79.3721 107.526C76.3475 107.147 72.2453 106.935 67.9678 106.935C63.6904 106.935 59.5882 107.147 56.5636 107.526C53.539 107.904 51.8398 108.416 51.8398 108.951V108.951Z" fill="#45413C"/>
<path d="M50.3399 101.348C49.9826 101.525 49.581 101.592 49.1856 101.54C48.7903 101.489 48.4191 101.321 48.119 101.059C47.8188 100.797 47.6032 100.451 47.4993 100.066C47.3955 99.6815 47.408 99.2744 47.5354 98.8967L49.7614 92.2996C49.8419 92.0437 49.9727 91.8065 50.146 91.6018C50.3194 91.3971 50.5319 91.2291 50.771 91.1076C51.0101 90.9861 51.2711 90.9135 51.5386 90.8941C51.8061 90.8747 52.0748 90.9089 52.329 90.9946C52.5831 91.0804 52.8176 91.216 53.0187 91.3936C53.2198 91.5711 53.3834 91.787 53.5 92.0285C53.6166 92.2701 53.6838 92.5325 53.6977 92.8004C53.7116 93.0683 53.6719 93.3362 53.5809 93.5885L51.355 100.186C51.2708 100.437 51.1378 100.669 50.9636 100.868C50.7894 101.068 50.5774 101.231 50.3399 101.348V101.348Z" fill="#87898C" stroke="#45413C" stroke-width="1.6" stroke-linecap="round" stroke-linejoin="round"/>
<path d="M84.9584 95.2423C85.3542 95.2852 85.7539 95.2099 86.107 95.0259C86.4601 94.8419 86.7508 94.5575 86.9425 94.2086C87.1341 93.8596 87.2182 93.4617 87.184 93.065C87.1498 92.6683 86.999 92.2907 86.7504 91.9796L82.3984 86.5422C82.2345 86.3314 82.0303 86.1553 81.7977 86.024C81.5652 85.8928 81.3089 85.8091 81.0437 85.7777C80.7785 85.7464 80.5097 85.768 80.253 85.8414C79.9962 85.9148 79.7566 86.0385 79.548 86.2053C79.3395 86.372 79.1661 86.5786 79.038 86.8129C78.91 87.0472 78.8297 87.3046 78.8019 87.5702C78.7742 87.8358 78.7995 88.1043 78.8763 88.36C78.9532 88.6157 79.0801 88.8537 79.2496 89.06L83.6016 94.4974C83.7675 94.7049 83.9727 94.8776 84.2056 95.0055C84.4384 95.1333 84.6943 95.2138 84.9584 95.2423Z" fill="#87898C" stroke="#45413C" stroke-width="1.6" stroke-linecap="round" stroke-linejoin="round"/>
<path d="M39.9786 82.6138C43.5212 88.5941 49.2944 92.9221 56.0281 94.6458C62.7618 96.3694 69.9044 95.3475 75.8846 91.8049C81.8649 88.2623 86.1929 82.4891 87.9165 75.7554C89.6402 69.0217 88.6183 61.8791 85.0757 55.8989C81.533 49.9186 75.7599 45.5906 69.0262 43.867C62.2925 42.1433 55.1499 43.1652 49.1696 46.7078C43.1894 50.2504 38.8614 56.0236 37.1377 62.7573C35.4141 69.491 36.436 76.6336 39.9786 82.6138V82.6138Z" fill="#FF6242"/>
<path d="M58.7927 48.0794C65.2355 46.9448 71.8696 48.2613 77.3909 51.7702C82.9122 55.2791 86.9211 60.7265 88.6295 67.0414C88.5617 66.2657 88.4759 65.4862 88.3377 64.7041C87.1303 57.8589 83.2532 51.7736 77.5591 47.787C71.8651 43.8005 64.8207 42.2391 57.9754 43.4465C51.1302 44.6538 45.045 48.531 41.0584 54.225C37.0718 59.919 35.5105 66.9635 36.7178 73.8087C36.8561 74.5908 37.0417 75.3524 37.2439 76.1038C36.6888 69.5856 38.5921 63.0956 42.5797 57.9097C46.5673 52.7238 52.3507 49.2172 58.7927 48.0794V48.0794Z" fill="#FF866E"/>
<path d="M39.9786 82.6138C43.5212 88.5941 49.2944 92.9221 56.0281 94.6458C62.7618 96.3694 69.9044 95.3475 75.8846 91.8049C81.8649 88.2623 86.1929 82.4891 87.9165 75.7554C89.6402 69.0217 88.6183 61.8791 85.0757 55.8989C81.533 49.9186 75.7599 45.5906 69.0262 43.867C62.2925 42.1433 55.1499 43.1652 49.1696 46.7078C43.1894 50.2504 38.8614 56.0236 37.1377 62.7573C35.4141 69.491 36.436 76.6336 39.9786 82.6138V82.6138Z" stroke="#45413C" stroke-width="1.6" stroke-linecap="round" stroke-linejoin="round"/>
<path d="M45.5155 75.5624C47.1878 80.0746 50.584 83.7376 54.9571 85.7457C59.3302 87.7537 64.3219 87.9423 68.834 86.27C73.3462 84.5977 77.0092 81.2014 79.0173 76.8283C81.0253 72.4553 81.214 67.4636 79.5417 62.9514C77.8693 58.4393 74.4731 54.7763 70.1 52.7682C65.7269 50.7601 60.7352 50.5715 56.2231 52.2438C51.7109 53.9161 48.0479 57.3124 46.0398 61.6855C44.0318 66.0586 43.8431 71.0503 45.5155 75.5624Z" fill="white" stroke="#45413C" stroke-width="1.6" stroke-linecap="round" stroke-linejoin="round"/>
<path d="M31.659 59.8593C31.4026 60.1038 31.1003 60.2953 30.7695 60.4226C30.4388 60.5499 30.0861 60.6105 29.7318 60.601C29.3776 60.5915 29.0287 60.512 28.7052 60.3671C28.3818 60.2223 28.0902 60.0149 27.8472 59.7569C25.7915 57.6135 24.5432 54.8233 24.3152 51.8623C24.0872 48.9012 24.8936 45.9528 26.5969 43.52C28.3002 41.0872 30.7948 39.3207 33.6552 38.5219C36.5156 37.7231 39.5645 37.9416 42.2818 39.1399C42.6073 39.2799 42.902 39.483 43.1488 39.7374C43.3956 39.9917 43.5896 40.2924 43.7198 40.622C43.8499 40.9517 43.9136 41.3038 43.9071 41.6582C43.9007 42.0125 43.8242 42.3621 43.6821 42.6868C42.1625 45.851 40.353 48.8677 38.2766 51.698C36.3276 54.617 34.1123 57.3491 31.659 59.8593V59.8593Z" fill="#FFE500"/>
<path d="M24.9602 54.0161C24.9603 51.85 25.527 49.7216 26.6041 47.8424C27.6813 45.9631 29.2313 44.3983 31.1003 43.3034C32.9693 42.2085 35.0922 41.6216 37.2581 41.601C39.4241 41.5804 41.5578 42.1268 43.4473 43.186C43.5305 43.0093 43.6073 42.8417 43.6777 42.6842C43.8197 42.3595 43.8962 42.01 43.9027 41.6556C43.9091 41.3013 43.8455 40.9491 43.7153 40.6195C43.5852 40.2898 43.3911 39.9892 43.1443 39.7348C42.8976 39.4804 42.6029 39.2774 42.2773 39.1373C39.9908 38.1288 37.4592 37.8108 34.9942 38.2225C32.5293 38.6342 30.2385 39.7576 28.4038 41.4545C26.5691 43.1514 25.2706 45.3477 24.668 47.7731C24.0655 50.1985 24.1853 52.7472 25.0127 55.1053C24.982 54.7469 24.9602 54.3847 24.9602 54.0161Z" fill="#FFF48C"/>
<path d="M31.659 59.8593C31.4026 60.1038 31.1003 60.2953 30.7695 60.4226C30.4388 60.5499 30.0861 60.6105 29.7318 60.601C29.3776 60.5915 29.0287 60.512 28.7052 60.3671C28.3818 60.2223 28.0902 60.0149 27.8472 59.7569C25.7915 57.6135 24.5432 54.8233 24.3152 51.8623C24.0872 48.9012 24.8936 45.9528 26.5969 43.52C28.3002 41.0872 30.7948 39.3207 33.6552 38.5219C36.5156 37.7231 39.5645 37.9416 42.2818 39.1399C42.6073 39.2799 42.902 39.483 43.1488 39.7374C43.3956 39.9917 43.5896 40.2924 43.7198 40.622C43.8499 40.9517 43.9136 41.3038 43.9071 41.6582C43.9007 42.0125 43.8242 42.3621 43.6821 42.6868C42.1625 45.851 40.353 48.8677 38.2766 51.698C36.3276 54.617 34.1123 57.3491 31.659 59.8593V59.8593Z" stroke="#45413C" stroke-width="1.6" stroke-linecap="round" stroke-linejoin="round"/>
<path d="M88.3201 49.8663C88.6447 50.0082 88.9942 50.0845 89.3484 50.0909C89.7026 50.0972 90.0546 50.0335 90.3841 49.9034C90.7136 49.7732 91.0141 49.5793 91.2684 49.3326C91.5227 49.0859 91.7257 48.7914 91.8657 48.466C93.064 45.7487 93.2825 42.6998 92.4837 39.8394C91.6849 36.979 89.9184 34.4844 87.4856 32.7811C85.0528 31.0778 82.1044 30.2714 79.1434 30.4994C76.1823 30.7274 73.3921 31.9758 71.2488 34.0314C70.9909 34.2744 70.7837 34.5659 70.639 34.8892C70.4942 35.2125 70.4148 35.5613 70.4053 35.9154C70.3958 36.2695 70.4563 36.622 70.5835 36.9527C70.7107 37.2833 70.902 37.5855 71.1464 37.842C73.6566 40.296 76.3892 42.5118 79.3089 44.4609C82.1392 46.5372 85.1558 48.3467 88.3201 49.8663V49.8663Z" fill="#FFE500"/>
<path d="M88.1345 36.466C85.6981 34.7738 82.7524 33.9739 79.7947 34.2012C76.837 34.4286 74.0482 35.6693 71.899 37.714C71.7489 37.8604 71.6162 38.0236 71.5035 38.2004C71.3755 38.0724 71.2552 37.9533 71.1464 37.842C70.902 37.5855 70.7107 37.2833 70.5835 36.9526C70.4563 36.622 70.3958 36.2695 70.4053 35.9154C70.4148 35.5613 70.4942 35.2125 70.639 34.8892C70.7837 34.5659 70.9909 34.2744 71.2488 34.0314C73.0404 32.31 75.2941 31.1469 77.7352 30.6837C80.1762 30.2205 82.6993 30.4772 84.997 31.4227C87.2948 32.3681 89.2679 33.9614 90.6761 36.0084C92.0843 38.0555 92.8667 40.4679 92.9281 42.9517C92.0753 40.3275 90.393 38.0513 88.1345 36.466V36.466Z" fill="#FFF48C"/>
<path d="M88.3201 49.8663C88.6447 50.0082 88.9942 50.0845 89.3484 50.0909C89.7026 50.0972 90.0546 50.0335 90.3841 49.9034C90.7136 49.7732 91.0141 49.5793 91.2684 49.3326C91.5227 49.0859 91.7257 48.7914 91.8657 48.466C93.064 45.7487 93.2825 42.6998 92.4837 39.8394C91.6849 36.979 89.9184 34.4844 87.4856 32.7811C85.0528 31.0778 82.1044 30.2714 79.1434 30.4994C76.1823 30.7274 73.3921 31.9758 71.2488 34.0314C70.9909 34.2744 70.7837 34.5659 70.639 34.8892C70.4942 35.2125 70.4148 35.5613 70.4053 35.9154C70.3958 36.2695 70.4563 36.622 70.5835 36.9527C70.7107 37.2833 70.902 37.5855 71.1464 37.842C73.6566 40.296 76.3892 42.5118 79.3089 44.4609C82.1392 46.5372 85.1558 48.3467 88.3201 49.8663V49.8663Z" stroke="#45413C" stroke-width="1.6" stroke-linecap="round" stroke-linejoin="round"/>
<path d="M34.0312 81.792C34.8545 85.2085 36.835 88.2346 39.6364 90.3565" stroke="#45413C" stroke-width="1.6" stroke-linecap="round" stroke-linejoin="round"/>
<path d="M32.3184 87.552C34.1419 90.6572 36.9704 93.0472 40.3363 94.327" stroke="#45413C" stroke-width="1.6" stroke-linecap="round" stroke-linejoin="round"/>
<path d="M93.6738 33.0574C96.3081 34.4027 97.9925 36.9985 97.9541 41.8548" stroke="#45413C" stroke-width="1.6" stroke-linecap="round" stroke-linejoin="round"/>
<path d="M94.3701 29.2686C97.2732 29.842 99.6028 31.8785 100.898 36.5646" stroke="#45413C" stroke-width="1.6" stroke-linecap="round" stroke-linejoin="round"/>
<path d="M64.5007 69.655C64.5518 69.4084 64.5562 69.1544 64.5135 68.9062L62.4131 56.9946C62.3758 56.7262 62.2848 56.4681 62.1455 56.2357C62.0062 56.0032 61.8215 55.8013 61.6024 55.6419C61.3833 55.4824 61.1343 55.3688 60.8703 55.3078C60.6063 55.2468 60.3328 55.2396 60.0659 55.2867C59.7991 55.3337 59.5445 55.4341 59.3173 55.5818C59.0902 55.7295 58.8951 55.9215 58.7438 56.1463C58.5925 56.3711 58.4881 56.624 58.4367 56.8901C58.3854 57.1561 58.3882 57.4298 58.4451 57.6947L60.4009 68.7846L57.023 73.6C56.8682 73.8167 56.7579 74.0619 56.6984 74.3215C56.6389 74.5811 56.6314 74.8499 56.6764 75.1124C56.7214 75.3749 56.818 75.6259 56.9605 75.8508C57.1031 76.0758 57.2888 76.2703 57.5069 76.423C57.7251 76.5758 57.9713 76.6839 58.2314 76.7409C58.4916 76.798 58.7604 76.803 59.0225 76.7555C59.2845 76.7081 59.5346 76.6092 59.7582 76.4646C59.9819 76.32 60.1746 76.1325 60.3254 75.913L64.1795 70.409C64.3315 70.1916 64.4389 69.9462 64.4956 69.687C64.4995 69.6768 64.4982 69.6666 64.5007 69.655Z" fill="#87898C" stroke="#45413C" stroke-width="1.6" stroke-linecap="round" stroke-linejoin="round"/>
<path d="M99.5518 76.0218V70.6458" stroke="#00AED9" stroke-width="1.6" stroke-linecap="round" stroke-linejoin="round"/>
<path d="M96.8643 73.3337H102.24" stroke="#00AED9" stroke-width="1.6" stroke-linecap="round" stroke-linejoin="round"/>
<path d="M68.6396 23.6058V20.9178" stroke="#00AED9" stroke-width="1.6" stroke-linecap="round" stroke-linejoin="round"/>
<path d="M67.2959 22.2618H69.9839" stroke="#00AED9" stroke-width="1.6" stroke-linecap="round" stroke-linejoin="round"/>
<path d="M99.5518 58.5498V55.8618" stroke="#00AED9" stroke-width="1.6" stroke-linecap="round" stroke-linejoin="round"/>
<path d="M98.208 57.2058H100.896" stroke="#00AED9" stroke-width="1.6" stroke-linecap="round" stroke-linejoin="round"/>
<path d="M18.9121 50.4859V47.7979" stroke="#00AED9" stroke-width="1.6" stroke-linecap="round" stroke-linejoin="round"/>
<path d="M17.5674 49.1418H20.2554" stroke="#00AED9" stroke-width="1.6" stroke-linecap="round" stroke-linejoin="round"/>
<path d="M109.09 60.2688C109.145 60.1562 109.231 60.0614 109.338 59.9951C109.444 59.9288 109.567 59.8937 109.693 59.8937C109.818 59.8937 109.941 59.9288 110.048 59.9951C110.154 60.0614 110.24 60.1562 110.296 60.2688L110.794 61.2787C110.843 61.3772 110.915 61.4622 111.004 61.5265C111.093 61.5907 111.197 61.6322 111.306 61.6474L112.421 61.8087C112.546 61.8259 112.664 61.8781 112.761 61.9593C112.858 62.0405 112.93 62.1474 112.969 62.2677C113.008 62.388 113.012 62.5169 112.981 62.6395C112.95 62.762 112.885 62.8734 112.793 62.9607L111.987 63.7479C111.908 63.8236 111.85 63.9173 111.816 64.0208C111.782 64.1243 111.775 64.2345 111.793 64.3418L111.984 65.4541C112.005 65.5777 111.991 65.7047 111.944 65.8208C111.897 65.9369 111.818 66.0375 111.716 66.1111C111.615 66.1848 111.495 66.2286 111.37 66.2375C111.245 66.2465 111.12 66.2203 111.009 66.1619L110.01 65.6371C109.914 65.5867 109.807 65.5603 109.698 65.5603C109.589 65.5603 109.482 65.5867 109.386 65.6371L108.387 66.1619C108.276 66.2203 108.151 66.2465 108.026 66.2375C107.901 66.2286 107.781 66.1848 107.68 66.1111C107.578 66.0375 107.499 65.9369 107.452 65.8208C107.405 65.7047 107.391 65.5777 107.412 65.4541L107.603 64.3418C107.621 64.2345 107.613 64.1244 107.58 64.0209C107.546 63.9174 107.487 63.8237 107.409 63.7479L106.602 62.9607C106.51 62.8734 106.445 62.762 106.414 62.6395C106.383 62.5169 106.387 62.388 106.426 62.2677C106.465 62.1474 106.537 62.0405 106.634 61.9593C106.731 61.8781 106.849 61.8259 106.974 61.8087L108.09 61.6474C108.199 61.6325 108.303 61.5912 108.392 61.5269C108.482 61.4626 108.554 61.3774 108.602 61.2787L109.09 60.2688Z" stroke="#FFB700" stroke-width="1.6" stroke-linecap="round" stroke-linejoin="round"/>
<path d="M23.305 64.3008C23.3604 64.1882 23.4463 64.0934 23.5528 64.0271C23.6594 63.9608 23.7823 63.9257 23.9078 63.9257C24.0333 63.9257 24.1563 63.9608 24.2629 64.0271C24.3694 64.0934 24.4553 64.1882 24.5107 64.3008L25.769 66.8493C25.8172 66.947 25.8884 67.0316 25.9764 67.0958C26.0645 67.16 26.1668 67.2019 26.2746 67.2179L29.0906 67.6263C29.2161 67.643 29.3344 67.6949 29.4317 67.7761C29.5289 67.8572 29.6012 67.9642 29.6402 68.0848C29.6792 68.2053 29.6832 68.3344 29.6519 68.4571C29.6205 68.5798 29.555 68.6912 29.463 68.7783L27.4278 70.7635C27.3498 70.8396 27.2914 70.9336 27.2577 71.0373C27.224 71.141 27.2161 71.2513 27.2346 71.3587L27.7146 74.1607C27.7355 74.2841 27.7216 74.4109 27.6743 74.5268C27.627 74.6427 27.5483 74.7431 27.4471 74.8167C27.3458 74.8903 27.226 74.9341 27.1012 74.9433C26.9763 74.9524 26.8514 74.9265 26.7405 74.8685L24.224 73.5463C24.1276 73.4951 24.0201 73.4684 23.911 73.4684C23.8019 73.4684 23.6945 73.4951 23.5981 73.5463L21.0816 74.8685C20.9706 74.9269 20.8456 74.9531 20.7205 74.9441C20.5955 74.9351 20.4754 74.8913 20.3739 74.8177C20.2725 74.744 20.1936 74.6435 20.1463 74.5274C20.099 74.4113 20.0851 74.2842 20.1062 74.1607L20.5875 71.3587C20.6057 71.2513 20.5976 71.1411 20.5639 71.0374C20.5303 70.9338 20.472 70.8398 20.3942 70.7635L18.3552 68.7719C18.2632 68.6848 18.1977 68.5734 18.1664 68.4507C18.135 68.328 18.1391 68.1989 18.178 68.0784C18.217 67.9578 18.2893 67.8508 18.3866 67.7697C18.4839 67.6885 18.6021 67.6366 18.7277 67.6198L21.5437 67.2115C21.6515 67.1957 21.7539 67.1539 21.842 67.0896C21.9301 67.0254 22.0012 66.9407 22.0493 66.8429L23.305 64.3008Z" stroke="#FF4064" stroke-width="1.6" stroke-linecap="round" stroke-linejoin="round"/>
<path d="M54.1058 20.3278C54.1612 20.2152 54.2471 20.1204 54.3536 20.0541C54.4602 19.9878 54.5831 19.9526 54.7086 19.9526C54.8341 19.9526 54.9571 19.9878 55.0637 20.0541C55.1702 20.1204 55.2561 20.2152 55.3115 20.3278L57.339 24.4366C57.3879 24.5349 57.4602 24.6198 57.5494 24.6839C57.6387 24.7479 57.7422 24.7891 57.851 24.8039L62.3848 25.4619C62.5101 25.4791 62.628 25.5313 62.7249 25.6125C62.8219 25.6937 62.8939 25.8006 62.9328 25.9209C62.9717 26.0412 62.9759 26.1701 62.9449 26.2927C62.9138 26.4152 62.8488 26.5266 62.7573 26.6139L59.4766 29.8139C59.3986 29.89 59.3402 29.9839 59.3065 30.0876C59.2728 30.1913 59.2649 30.3016 59.2834 30.4091L60.0514 34.9236C60.0728 35.0473 60.0591 35.1745 60.0119 35.2908C59.9647 35.4071 59.8859 35.5079 59.7844 35.5817C59.6828 35.6555 59.5627 35.6994 59.4375 35.7085C59.3123 35.7175 59.1871 35.6912 59.076 35.6327L55.0222 33.5003C54.9256 33.4498 54.8183 33.4234 54.7093 33.4234C54.6003 33.4234 54.4929 33.4498 54.3963 33.5003L50.3413 35.6327C50.2302 35.6912 50.105 35.7175 49.9798 35.7085C49.8546 35.6994 49.7344 35.6555 49.6329 35.5817C49.5314 35.5079 49.4526 35.4071 49.4054 35.2908C49.3582 35.1745 49.3445 35.0473 49.3659 34.9236L50.1339 30.4091C50.1527 30.3016 50.145 30.1912 50.1113 30.0874C50.0776 29.9837 50.019 29.8898 49.9406 29.8139L46.6613 26.6139C46.5698 26.5266 46.5048 26.4152 46.4737 26.2927C46.4426 26.1701 46.4468 26.0412 46.4857 25.9209C46.5246 25.8006 46.5967 25.6937 46.6936 25.6125C46.7906 25.5313 46.9085 25.4791 47.0338 25.4619L51.5662 24.8039C51.675 24.7888 51.7784 24.7475 51.8676 24.6835C51.9568 24.6195 52.0291 24.5347 52.0782 24.4366L54.1058 20.3278Z" stroke="#48CF3E" stroke-width="1.6" stroke-linecap="round" stroke-linejoin="round"/>
<path d="M102.24 85.0932V84.0858" stroke="#00AED9" stroke-width="1.6" stroke-linecap="round" stroke-linejoin="round"/>
<path d="M104.379 85.9789L105.091 85.2672" stroke="#00AED9" stroke-width="1.6" stroke-linecap="round" stroke-linejoin="round"/>
<path d="M105.265 88.1178H106.272" stroke="#00AED9" stroke-width="1.6" stroke-linecap="round" stroke-linejoin="round"/>
<path d="M104.379 90.2554L105.091 90.9683" stroke="#00AED9" stroke-width="1.6" stroke-linecap="round" stroke-linejoin="round"/>
<path d="M102.24 91.1411V92.1497" stroke="#00AED9" stroke-width="1.6" stroke-linecap="round" stroke-linejoin="round"/>
<path d="M100.101 90.2554L99.3896 90.9683" stroke="#00AED9" stroke-width="1.6" stroke-linecap="round" stroke-linejoin="round"/>
<path d="M99.2167 88.1178H98.208" stroke="#00AED9" stroke-width="1.6" stroke-linecap="round" stroke-linejoin="round"/>
<path d="M100.101 85.9789L99.3896 85.2672" stroke="#00AED9" stroke-width="1.6" stroke-linecap="round" stroke-linejoin="round"/>
</svg>
