<svg width="64" height="64" viewBox="0 0 64 64" fill="none" xmlns="http://www.w3.org/2000/svg">
<path d="M0.395508 32C0.395508 40.3821 3.7253 48.4209 9.65238 54.348C15.5795 60.2751 23.6183 63.6049 32.0004 63.6049C40.3826 63.6049 48.4214 60.2751 54.3485 54.348C60.2756 48.4209 63.6054 40.3821 63.6054 32C63.6054 23.6178 60.2756 15.579 54.3485 9.65189C48.4214 3.72482 40.3826 0.39502 32.0004 0.39502C23.6183 0.39502 15.5795 3.72482 9.65238 9.65189C3.7253 15.579 0.395508 23.6178 0.395508 32Z" fill="#7029F5"/>
<path fill-rule="evenodd" clip-rule="evenodd" d="M9.37258 9.37258C15.3737 3.37142 23.5131 0 32 0C40.4869 0 48.6263 3.37142 54.6274 9.37258C60.6286 15.3737 64 23.5131 64 32C64 40.4869 60.6286 48.6263 54.6274 54.6274C48.6263 60.6286 40.4869 64 32 64C23.5131 64 15.3737 60.6286 9.37258 54.6274C3.37142 48.6263 0 40.4869 0 32C0 23.5131 3.37142 15.3737 9.37258 9.37258ZM32 0.790123C23.7226 0.790123 15.7843 4.0783 9.93129 9.93129C4.0783 15.7843 0.790123 23.7226 0.790123 32C0.790123 40.2774 4.0783 48.2157 9.93129 54.0687C15.7843 59.9217 23.7226 63.2099 32 63.2099C40.2774 63.2099 48.2157 59.9217 54.0687 54.0687C59.9217 48.2157 63.2099 40.2774 63.2099 32C63.2099 23.7226 59.9217 15.7843 54.0687 9.93129C48.2157 4.0783 40.2774 0.790123 32 0.790123Z" fill="#271B72"/>
<path d="M59.3055 49.4965C59.3055 50.165 59.0399 50.8061 58.5673 51.2788C58.0946 51.7515 57.4535 52.017 56.785 52.017H7.21581C6.54733 52.017 5.90623 51.7515 5.43355 51.2788C4.96086 50.8061 4.69531 50.165 4.69531 49.4965V15.0471H59.3055V49.4965Z" fill="#E5F8FF"/>
<path d="M56.785 7.48877H7.21581C6.54733 7.48877 5.90623 7.75432 5.43355 8.227C4.96086 8.69969 4.69531 9.34079 4.69531 10.0093V15.0503H59.3055V10.0093C59.3055 9.67827 59.2403 9.35051 59.1136 9.04471C58.987 8.73891 58.8013 8.46105 58.5673 8.227C58.3332 7.99295 58.0553 7.8073 57.7495 7.68063C57.4437 7.55396 57.116 7.48877 56.785 7.48877Z" fill="white"/>
<path fill-rule="evenodd" clip-rule="evenodd" d="M5.15375 7.9477C5.70052 7.40092 6.44211 7.09375 7.21536 7.09375H56.7845C57.1674 7.09375 57.5465 7.16916 57.9003 7.31568C58.254 7.4622 58.5754 7.67696 58.8462 7.9477C59.1169 8.21843 59.3316 8.53984 59.4782 8.89357C59.6247 9.2473 59.7001 9.62643 59.7001 10.0093V15.0503C59.7001 15.2685 59.5232 15.4454 59.305 15.4454H4.69487C4.47668 15.4454 4.2998 15.2685 4.2998 15.0503V10.0093C4.2998 9.23605 4.60698 8.49447 5.15375 7.9477ZM7.21536 7.88387C6.65166 7.88387 6.11105 8.1078 5.71245 8.5064C5.31386 8.90499 5.08993 9.44561 5.08993 10.0093V14.6552H58.91V10.0093C58.91 9.73019 58.855 9.4538 58.7482 9.19594C58.6414 8.93807 58.4848 8.70376 58.2875 8.5064C58.0901 8.30903 57.8558 8.15248 57.5979 8.04566C57.34 7.93885 57.0637 7.88387 56.7845 7.88387H7.21536Z" fill="#45413C"/>
<path d="M7.21582 11.2696C7.21582 11.4351 7.24842 11.5989 7.31175 11.7518C7.37508 11.9047 7.46791 12.0437 7.58494 12.1607C7.70196 12.2777 7.84089 12.3705 7.99379 12.4339C8.14669 12.4972 8.31057 12.5298 8.47607 12.5298C8.64156 12.5298 8.80544 12.4972 8.95834 12.4339C9.11124 12.3705 9.25017 12.2777 9.3672 12.1607C9.48422 12.0437 9.57705 11.9047 9.64038 11.7518C9.70372 11.5989 9.73631 11.4351 9.73631 11.2696C9.73631 11.1041 9.70372 10.9402 9.64038 10.7873C9.57705 10.6344 9.48422 10.4955 9.3672 10.3784C9.25017 10.2614 9.11124 10.1686 8.95834 10.1052C8.80544 10.0419 8.64156 10.0093 8.47607 10.0093C8.31057 10.0093 8.14669 10.0419 7.99379 10.1052C7.84089 10.1686 7.70196 10.2614 7.58494 10.3784C7.46791 10.4955 7.37508 10.6344 7.31175 10.7873C7.24842 10.9402 7.21582 11.1041 7.21582 11.2696Z" fill="#FF6242"/>
<path fill-rule="evenodd" clip-rule="evenodd" d="M7.84216 9.7402C8.04299 9.65701 8.25824 9.6142 8.47562 9.6142C8.693 9.6142 8.90825 9.65701 9.10908 9.7402C9.30991 9.82339 9.49239 9.94532 9.6461 10.099C9.79981 10.2527 9.92174 10.4352 10.0049 10.636C10.0881 10.8369 10.1309 11.0521 10.1309 11.2695C10.1309 11.4869 10.0881 11.7021 10.0049 11.903C9.92174 12.1038 9.79981 12.2863 9.6461 12.44C9.49239 12.5937 9.30991 12.7156 9.10908 12.7988C8.90825 12.882 8.693 12.9248 8.47562 12.9248C8.25824 12.9248 8.04299 12.882 7.84216 12.7988C7.64133 12.7156 7.45885 12.5937 7.30514 12.44C7.15143 12.2863 7.0295 12.1038 6.94632 11.903C6.86313 11.7021 6.82031 11.4869 6.82031 11.2695C6.82031 11.0521 6.86313 10.8369 6.94632 10.636C7.0295 10.4352 7.15143 10.2527 7.30514 10.099C7.45885 9.94532 7.64133 9.82339 7.84216 9.7402ZM8.47562 10.4043C8.362 10.4043 8.2495 10.4267 8.14453 10.4702C8.03956 10.5137 7.94418 10.5774 7.86384 10.6577C7.7835 10.7381 7.71977 10.8334 7.67629 10.9384C7.63281 11.0434 7.61044 11.1559 7.61044 11.2695C7.61044 11.3831 7.63281 11.4956 7.67629 11.6006C7.71977 11.7056 7.7835 11.8009 7.86384 11.8813C7.94418 11.9616 8.03956 12.0254 8.14453 12.0688C8.2495 12.1123 8.362 12.1347 8.47562 12.1347C8.58924 12.1347 8.70174 12.1123 8.80671 12.0688C8.91168 12.0254 9.00706 11.9616 9.0874 11.8813C9.16774 11.8009 9.23147 11.7056 9.27495 11.6006C9.31843 11.4956 9.34081 11.3831 9.34081 11.2695C9.34081 11.1559 9.31843 11.0434 9.27495 10.9384C9.23147 10.8334 9.16774 10.7381 9.0874 10.6577C9.00706 10.5774 8.91168 10.5137 8.80671 10.4702C8.70174 10.4267 8.58924 10.4043 8.47562 10.4043Z" fill="#FF6242"/>
<path d="M11.416 11.2696C11.416 11.4351 11.4486 11.5989 11.5119 11.7518C11.5753 11.9047 11.6681 12.0437 11.7851 12.1607C11.9022 12.2777 12.0411 12.3705 12.194 12.4339C12.3469 12.4972 12.5108 12.5298 12.6763 12.5298C12.8418 12.5298 13.0056 12.4972 13.1585 12.4339C13.3114 12.3705 13.4504 12.2777 13.5674 12.1607C13.6844 12.0437 13.7772 11.9047 13.8406 11.7518C13.9039 11.5989 13.9365 11.4351 13.9365 11.2696C13.9365 11.1041 13.9039 10.9402 13.8406 10.7873C13.7772 10.6344 13.6844 10.4955 13.5674 10.3784C13.4504 10.2614 13.3114 10.1686 13.1585 10.1052C13.0056 10.0419 12.8418 10.0093 12.6763 10.0093C12.5108 10.0093 12.3469 10.0419 12.194 10.1052C12.0411 10.1686 11.9022 10.2614 11.7851 10.3784C11.6681 10.4955 11.5753 10.6344 11.5119 10.7873C11.4486 10.9402 11.416 11.1041 11.416 11.2696Z" fill="#FFE500"/>
<path fill-rule="evenodd" clip-rule="evenodd" d="M12.0433 9.7402C12.2442 9.65701 12.4594 9.6142 12.6768 9.6142C12.8942 9.6142 13.1094 9.65701 13.3103 9.7402C13.5111 9.82339 13.6936 9.94532 13.8473 10.099C14.001 10.2527 14.1229 10.4352 14.2061 10.636C14.2893 10.8369 14.3321 11.0521 14.3321 11.2695C14.3321 11.4869 14.2893 11.7021 14.2061 11.903C14.1229 12.1038 14.001 12.2863 13.8473 12.44C13.6936 12.5937 13.5111 12.7156 13.3103 12.7988C13.1094 12.882 12.8942 12.9248 12.6768 12.9248C12.4594 12.9248 12.2442 12.882 12.0433 12.7988C11.8425 12.7156 11.66 12.5937 11.5063 12.44C11.3526 12.2863 11.2307 12.1038 11.1475 11.903C11.0643 11.7021 11.0215 11.4869 11.0215 11.2695C11.0215 11.0521 11.0643 10.8369 11.1475 10.636C11.2307 10.4352 11.3526 10.2527 11.5063 10.099C11.66 9.94532 11.8425 9.82339 12.0433 9.7402ZM12.6768 10.4043C12.5632 10.4043 12.4507 10.4267 12.3457 10.4702C12.2407 10.5137 12.1454 10.5774 12.065 10.6577C11.9847 10.7381 11.9209 10.8334 11.8775 10.9384C11.834 11.0434 11.8116 11.1559 11.8116 11.2695C11.8116 11.3831 11.834 11.4956 11.8775 11.6006C11.9209 11.7056 11.9847 11.8009 12.065 11.8813C12.1454 11.9616 12.2407 12.0254 12.3457 12.0688C12.4507 12.1123 12.5632 12.1347 12.6768 12.1347C12.7904 12.1347 12.9029 12.1123 13.0079 12.0688C13.1129 12.0254 13.2082 11.9616 13.2886 11.8813C13.3689 11.8009 13.4326 11.7056 13.4761 11.6006C13.5196 11.4956 13.542 11.3831 13.542 11.2695C13.542 11.1559 13.5196 11.0434 13.4761 10.9384C13.4326 10.8334 13.3689 10.7381 13.2886 10.6577C13.2082 10.5774 13.1129 10.5137 13.0079 10.4702C12.9029 10.4267 12.7904 10.4043 12.6768 10.4043Z" fill="#FFE500"/>
<path d="M15.6172 11.2696C15.6172 11.6038 15.75 11.9243 15.9863 12.1607C16.2226 12.397 16.5432 12.5298 16.8774 12.5298C17.2117 12.5298 17.5322 12.397 17.7686 12.1607C18.0049 11.9243 18.1377 11.6038 18.1377 11.2696C18.1377 10.9353 18.0049 10.6148 17.7686 10.3784C17.5322 10.1421 17.2117 10.0093 16.8774 10.0093C16.5432 10.0093 16.2226 10.1421 15.9863 10.3784C15.75 10.6148 15.6172 10.9353 15.6172 11.2696Z" fill="#6DD627"/>
<path fill-rule="evenodd" clip-rule="evenodd" d="M15.7065 10.099C16.0169 9.7886 16.438 9.6142 16.877 9.6142C17.316 9.6142 17.737 9.7886 18.0475 10.099C18.3579 10.4095 18.5323 10.8305 18.5323 11.2695C18.5323 11.7085 18.3579 12.1296 18.0475 12.44C17.737 12.7504 17.316 12.9248 16.877 12.9248C16.438 12.9248 16.0169 12.7504 15.7065 12.44C15.3961 12.1296 15.2217 11.7085 15.2217 11.2695C15.2217 10.8305 15.3961 10.4095 15.7065 10.099ZM16.877 10.4043C16.6475 10.4043 16.4275 10.4955 16.2652 10.6577C16.103 10.82 16.0118 11.04 16.0118 11.2695C16.0118 11.499 16.103 11.719 16.2652 11.8813C16.4275 12.0435 16.6475 12.1347 16.877 12.1347C17.1065 12.1347 17.3265 12.0435 17.4888 11.8813C17.651 11.719 17.7422 11.499 17.7422 11.2695C17.7422 11.04 17.651 10.82 17.4888 10.6577C17.3265 10.4955 17.1065 10.4043 16.877 10.4043Z" fill="#6DD627"/>
<path fill-rule="evenodd" clip-rule="evenodd" d="M4.2998 15.0471C4.2998 14.8289 4.47668 14.652 4.69487 14.652H59.305C59.5232 14.652 59.7001 14.8289 59.7001 15.0471V49.4965C59.7001 50.2697 59.3929 51.0113 58.8462 51.5581C58.2994 52.1048 57.5578 52.412 56.7845 52.412H7.21536C6.44211 52.412 5.70052 52.1048 5.15375 51.5581C4.60698 51.0113 4.2998 50.2697 4.2998 49.4965V15.0471ZM5.08993 15.4421V49.4965C5.08993 50.0602 5.31386 50.6008 5.71245 50.9994C6.11105 51.398 6.65166 51.6219 7.21536 51.6219H56.7845C57.3482 51.6219 57.8889 51.398 58.2875 50.9994C58.686 50.6008 58.91 50.0602 58.91 49.4965V15.4421H5.08993Z" fill="#45413C"/>
<path d="M11.3906 17.8939H52.609V48.7625H11.3906V17.8939Z" fill="#4ACFFF"/>
<path d="M52.6091 35.9356L46.4698 29.7964C46.2488 29.5758 45.9674 29.4256 45.6611 29.3648C45.3548 29.3039 45.0374 29.3352 44.7489 29.4547C44.4604 29.5741 44.2137 29.7764 44.04 30.0359C43.8664 30.2954 43.7735 30.6006 43.7731 30.9128L43.7676 40.3374C43.7674 40.6541 43.8624 40.9634 44.0402 41.2254C44.218 41.4875 44.4705 41.69 44.7648 41.8068C45.059 41.9237 45.3817 41.9494 45.6907 41.8807C45.9998 41.812 46.2812 41.652 46.4982 41.4215L48.724 39.0574L51.9691 39.1578C52.1884 39.1633 52.4065 39.1238 52.6099 39.0416L52.6091 35.9356Z" fill="#00B8F0"/>
<path fill-rule="evenodd" clip-rule="evenodd" d="M10.9961 17.894C10.9961 17.6758 11.173 17.4989 11.3912 17.4989H52.6095C52.8277 17.4989 53.0046 17.6758 53.0046 17.894V48.7625C53.0046 48.9807 52.8277 49.1576 52.6095 49.1576H11.3912C11.173 49.1576 10.9961 48.9807 10.9961 48.7625V17.894ZM11.7862 18.289V48.3674H52.2145V18.289H11.7862Z" fill="#45413C"/>
<path d="M25.8994 48.7625L32.5886 40.2623C32.9556 39.7485 33.4399 39.3298 34.0013 39.0409C34.5626 38.752 35.1849 38.6013 35.8163 38.6013C36.4476 38.6013 37.0699 38.752 37.6313 39.0409C38.1926 39.3298 38.6769 39.7485 39.0439 40.2623L45.7323 48.7625H25.8994Z" fill="#46B000"/>
<path fill-rule="evenodd" clip-rule="evenodd" d="M35.8158 38.9964C35.2473 38.9964 34.6871 39.1321 34.1816 39.3922C33.6761 39.6523 33.24 40.0294 32.9096 40.492C32.9061 40.4969 32.9024 40.5018 32.8986 40.5067L26.7126 48.3674H44.9183L38.733 40.5066C38.7292 40.5018 38.7255 40.4969 38.722 40.492C38.3916 40.0294 37.9555 39.6523 37.45 39.3922C36.9446 39.1321 36.3843 38.9964 35.8158 38.9964ZM33.82 38.6897C34.4373 38.372 35.1216 38.2062 35.8158 38.2062C36.5101 38.2062 37.1943 38.372 37.8116 38.6897C38.4261 39.0059 38.9566 39.4636 39.3595 40.0251L46.0423 48.5182C46.1359 48.6371 46.1533 48.799 46.0872 48.9351C46.0211 49.0712 45.8831 49.1576 45.7319 49.1576H25.899C25.7477 49.1576 25.6097 49.0712 25.5436 48.9351C25.4775 48.799 25.495 48.6371 25.5885 48.5182L32.2721 40.0251C32.675 39.4636 33.2055 39.0059 33.82 38.6897Z" fill="#45413C"/>
<path d="M12.5771 48.7624L21.3033 37.9915C21.6727 37.4987 22.1518 37.0988 22.7027 36.8233C23.2535 36.5478 23.8609 36.4044 24.4768 36.4044C25.0927 36.4044 25.7001 36.5478 26.2509 36.8233C26.8018 37.0988 27.2809 37.4987 27.6503 37.9915L36.3765 48.7624H12.5771Z" fill="#6DD627"/>
<path fill-rule="evenodd" clip-rule="evenodd" d="M24.4764 36.7995C23.9218 36.7995 23.3749 36.9286 22.8789 37.1767C22.383 37.4247 21.9516 37.7848 21.6189 38.2285C21.616 38.2325 21.6129 38.2364 21.6098 38.2402L13.4052 48.3674H35.5475L27.3429 38.2402C27.3398 38.2364 27.3368 38.2325 27.3338 38.2285C27.0012 37.7848 26.5698 37.4247 26.0738 37.1767C25.5778 36.9286 25.0309 36.7995 24.4764 36.7995ZM22.5255 36.47C23.1312 36.1671 23.7991 36.0094 24.4764 36.0094C25.1536 36.0094 25.8215 36.1671 26.4272 36.47C27.0306 36.7718 27.5558 37.2094 27.9614 37.7485L36.683 48.5138C36.7789 48.6321 36.7982 48.7951 36.7326 48.9325C36.6671 49.07 36.5283 49.1575 36.376 49.1575H12.5767C12.4244 49.1575 12.2857 49.07 12.2201 48.9325C12.1546 48.7951 12.1739 48.6321 12.2697 48.5138L20.9913 37.7485C21.3969 37.2094 21.9221 36.7718 22.5255 36.47Z" fill="#45413C"/>
<path d="M36.9307 27.5105C36.9307 28.0366 37.0343 28.5575 37.2356 29.0435C37.4369 29.5296 37.732 29.9712 38.104 30.3432C38.476 30.7151 38.9176 31.0102 39.4036 31.2115C39.8896 31.4128 40.4105 31.5165 40.9366 31.5165C41.4627 31.5165 41.9836 31.4128 42.4696 31.2115C42.9556 31.0102 43.3972 30.7151 43.7692 30.3432C44.1412 29.9712 44.4363 29.5296 44.6376 29.0435C44.8389 28.5575 44.9425 28.0366 44.9425 27.5105C44.9425 26.9845 44.8389 26.4636 44.6376 25.9775C44.4363 25.4915 44.1412 25.0499 43.7692 24.6779C43.3972 24.3059 42.9556 24.0109 42.4696 23.8095C41.9836 23.6082 41.4627 23.5046 40.9366 23.5046C40.4105 23.5046 39.8896 23.6082 39.4036 23.8095C38.9176 24.0109 38.476 24.3059 38.104 24.6779C37.732 25.0499 37.4369 25.4915 37.2356 25.9775C37.0343 26.4636 36.9307 26.9845 36.9307 27.5105Z" fill="#FFE500"/>
<path fill-rule="evenodd" clip-rule="evenodd" d="M39.252 23.4445C39.7859 23.2233 40.3582 23.1095 40.9361 23.1095C41.5141 23.1095 42.0864 23.2233 42.6203 23.4445C43.1543 23.6657 43.6394 23.9898 44.0481 24.3985C44.4568 24.8072 44.781 25.2923 45.0021 25.8263C45.2233 26.3603 45.3371 26.9325 45.3371 27.5105C45.3371 28.0884 45.2233 28.6607 45.0021 29.1947C44.781 29.7286 44.4568 30.2138 44.0481 30.6225C43.6394 31.0311 43.1543 31.3553 42.6203 31.5765C42.0864 31.7976 41.5141 31.9115 40.9361 31.9115C40.3582 31.9115 39.7859 31.7976 39.252 31.5765C38.718 31.3553 38.2328 31.0311 37.8242 30.6225C37.4155 30.2138 37.0913 29.7286 36.8702 29.1947C36.649 28.6607 36.5352 28.0884 36.5352 27.5105C36.5352 26.9325 36.649 26.3603 36.8702 25.8263C37.0913 25.2923 37.4155 24.8072 37.8242 24.3985C38.2328 23.9898 38.718 23.6657 39.252 23.4445ZM40.9361 23.8996C40.462 23.8996 39.9924 23.993 39.5543 24.1745C39.1162 24.3559 38.7182 24.6219 38.3829 24.9572C38.0476 25.2925 37.7816 25.6906 37.6001 26.1287C37.4187 26.5668 37.3253 27.0363 37.3253 27.5105C37.3253 27.9847 37.4187 28.4542 37.6001 28.8923C37.7816 29.3304 38.0476 29.7284 38.3829 30.0637C38.7182 30.399 39.1162 30.665 39.5543 30.8465C39.9924 31.0279 40.462 31.1213 40.9361 31.1213C41.4103 31.1213 41.8799 31.0279 42.318 30.8465C42.7561 30.665 43.1541 30.399 43.4894 30.0637C43.8247 29.7284 44.0907 29.3304 44.2721 28.8923C44.4536 28.4542 44.547 27.9847 44.547 27.5105C44.547 27.0363 44.4536 26.5668 44.2721 26.1287C44.0907 25.6906 43.8247 25.2925 43.4894 24.9572C43.1541 24.6219 42.7561 24.3559 42.318 24.1745C41.8799 23.993 41.4103 23.8996 40.9361 23.8996Z" fill="#45413C"/>
<path fill-rule="evenodd" clip-rule="evenodd" d="M33.8984 20.8672C33.8984 20.649 34.0753 20.4721 34.2935 20.4721H47.5802C47.7984 20.4721 47.9753 20.649 47.9753 20.8672V34.1539C47.9753 34.3721 47.7984 34.549 47.5802 34.549H34.2935C34.0753 34.549 33.8984 34.3721 33.8984 34.1539V20.8672ZM34.6886 21.2623V33.7589H47.1852V21.2623H34.6886Z" fill="#45413C"/>
<path d="M39.835 19.7649H42.0394V21.9694H39.835V19.7649Z" fill="white"/>
<path fill-rule="evenodd" clip-rule="evenodd" d="M39.4395 19.765C39.4395 19.5468 39.6163 19.3699 39.8345 19.3699H42.039C42.2571 19.3699 42.434 19.5468 42.434 19.765V21.9694C42.434 22.1876 42.2571 22.3645 42.039 22.3645H39.8345C39.6163 22.3645 39.4395 22.1876 39.4395 21.9694V19.765ZM40.2296 20.16V21.5743H41.6439V20.16H40.2296Z" fill="#45413C"/>
<path d="M46.4775 19.7649H48.682V21.9694H46.4775V19.7649Z" fill="white"/>
<path fill-rule="evenodd" clip-rule="evenodd" d="M46.082 19.765C46.082 19.5468 46.2589 19.3699 46.4771 19.3699H48.6815C48.8997 19.3699 49.0766 19.5468 49.0766 19.765V21.9694C49.0766 22.1876 48.8997 22.3645 48.6815 22.3645H46.4771C46.2589 22.3645 46.082 22.1876 46.082 21.9694V19.765ZM46.8722 20.16V21.5743H48.2865V20.16H46.8722Z" fill="#45413C"/>
<path d="M39.835 33.0516H42.0394V35.2561H39.835V33.0516Z" fill="white"/>
<path fill-rule="evenodd" clip-rule="evenodd" d="M39.4395 33.0516C39.4395 32.8335 39.6163 32.6566 39.8345 32.6566H42.039C42.2571 32.6566 42.434 32.8335 42.434 33.0516V35.2561C42.434 35.4743 42.2571 35.6512 42.039 35.6512H39.8345C39.6163 35.6512 39.4395 35.4743 39.4395 35.2561V33.0516ZM40.2296 33.4467V34.861H41.6439V33.4467H40.2296Z" fill="#45413C"/>
<path d="M33.1914 19.7649H35.3959V21.9694H33.1914V19.7649Z" fill="white"/>
<path fill-rule="evenodd" clip-rule="evenodd" d="M32.7969 19.765C32.7969 19.5468 32.9738 19.3699 33.1919 19.3699H35.3964C35.6146 19.3699 35.7914 19.5468 35.7914 19.765V21.9694C35.7914 22.1876 35.6146 22.3645 35.3964 22.3645H33.1919C32.9738 22.3645 32.7969 22.1876 32.7969 21.9694V19.765ZM33.587 20.16V21.5743H35.0013V20.16H33.587Z" fill="#45413C"/>
<path d="M33.1914 33.0516H35.3959V35.2561H33.1914V33.0516Z" fill="white"/>
<path fill-rule="evenodd" clip-rule="evenodd" d="M32.7969 33.0516C32.7969 32.8335 32.9738 32.6566 33.1919 32.6566H35.3964C35.6146 32.6566 35.7914 32.8335 35.7914 33.0516V35.2561C35.7914 35.4743 35.6146 35.6512 35.3964 35.6512H33.1919C32.9738 35.6512 32.7969 35.4743 32.7969 35.2561V33.0516ZM33.587 33.4467V34.861H35.0013V33.4467H33.587Z" fill="#45413C"/>
<path d="M46.4775 33.0516H48.682V35.2561H46.4775V33.0516Z" fill="white"/>
<path fill-rule="evenodd" clip-rule="evenodd" d="M46.082 33.0516C46.082 32.8335 46.2589 32.6566 46.4771 32.6566H48.6815C48.8997 32.6566 49.0766 32.8335 49.0766 33.0516V35.2561C49.0766 35.4743 48.8997 35.6512 48.6815 35.6512H46.4771C46.2589 35.6512 46.082 35.4743 46.082 35.2561V33.0516ZM46.8722 33.4467V34.861H48.2865V33.4467H46.8722Z" fill="#45413C"/>
<path d="M46.4775 26.4083H48.682V28.6128H46.4775V26.4083Z" fill="white"/>
<path fill-rule="evenodd" clip-rule="evenodd" d="M46.082 26.4083C46.082 26.1901 46.2589 26.0132 46.4771 26.0132H48.6815C48.8997 26.0132 49.0766 26.1901 49.0766 26.4083V28.6127C49.0766 28.8309 48.8997 29.0078 48.6815 29.0078H46.4771C46.2589 29.0078 46.082 28.8309 46.082 28.6127V26.4083ZM46.8722 26.8033V28.2177H48.2865V26.8033H46.8722Z" fill="#45413C"/>
<path d="M33.1914 26.4083H35.3959V28.6128H33.1914V26.4083Z" fill="white"/>
<path fill-rule="evenodd" clip-rule="evenodd" d="M32.7969 26.4083C32.7969 26.1901 32.9738 26.0132 33.1919 26.0132H35.3964C35.6146 26.0132 35.7914 26.1901 35.7914 26.4083V28.6127C35.7914 28.8309 35.6146 29.0078 35.3964 29.0078H33.1919C32.9738 29.0078 32.7969 28.8309 32.7969 28.6127V26.4083ZM33.587 26.8033V28.2177H35.0013V26.8033H33.587Z" fill="#45413C"/>
<path d="M51.3115 36.8727C51.3677 36.9286 51.4057 37.0002 51.4207 37.0781C51.4356 37.1559 51.4268 37.2365 51.3954 37.3093C51.3639 37.3821 51.3113 37.4437 51.2443 37.4862C51.1774 37.5287 51.0992 37.55 51.02 37.5474L48.2379 37.4613C48.1821 37.4596 48.1265 37.4698 48.0749 37.4912C48.0233 37.5126 47.9768 37.5447 47.9385 37.5854L46.0303 39.612C45.9761 39.6697 45.9057 39.7097 45.8285 39.7268C45.7512 39.744 45.6705 39.7376 45.597 39.7084C45.5234 39.6792 45.4603 39.6285 45.4158 39.563C45.3714 39.4975 45.3476 39.4202 45.3477 39.341L45.3524 31.8664C45.3526 31.7884 45.3758 31.7122 45.4193 31.6474C45.4627 31.5826 45.5243 31.5321 45.5964 31.5023C45.6685 31.4725 45.7478 31.4646 45.8243 31.4798C45.9008 31.495 45.9711 31.5325 46.0264 31.5875L51.3115 36.8727Z" fill="white"/>
<path opacity="0.15" d="M20.3398 59.0262C20.3398 59.3405 21.422 59.642 23.3483 59.8643C25.2746 60.0865 27.8872 60.2114 30.6114 60.2114C33.3356 60.2114 35.9483 60.0865 37.8746 59.8643C39.8009 59.642 40.8831 59.3405 40.8831 59.0262C40.8831 58.7119 39.8009 58.4104 37.8746 58.1882C35.9483 57.9659 33.3356 57.841 30.6114 57.841C27.8872 57.841 25.2746 57.9659 23.3483 58.1882C21.422 58.4104 20.3398 58.7119 20.3398 59.0262Z" fill="#45413C"/>
</svg>

