<svg width="64" height="64" viewBox="0 0 64 64" fill="none" xmlns="http://www.w3.org/2000/svg">
<path d="M0 32C0 40.4869 3.37142 48.6263 9.37258 54.6274C15.3737 60.6286 23.5131 64 32 64C40.4869 64 48.6263 60.6286 54.6274 54.6274C60.6286 48.6263 64 40.4869 64 32C64 23.5131 60.6286 15.3737 54.6274 9.37258C48.6263 3.37142 40.4869 0 32 0C23.5131 0 15.3737 3.37142 9.37258 9.37258C3.37142 15.3737 0 23.5131 0 32Z" fill="#7029F5"/>
<path opacity="0.15" d="M9.19727 49.9464C9.19727 50.4478 11.5868 50.9286 15.8401 51.2831C20.0934 51.6376 25.8622 51.8368 31.8773 51.8368C37.8924 51.8368 43.6611 51.6376 47.9144 51.2831C52.1678 50.9286 54.5573 50.4478 54.5573 49.9464C54.5573 49.445 52.1678 48.9642 47.9144 48.6097C43.6611 48.2552 37.8924 48.056 31.8773 48.056C25.8622 48.056 20.0934 48.2552 15.8401 48.6097C11.5868 48.9642 9.19727 49.445 9.19727 49.9464Z" fill="#45413C"/>
<path d="M57.538 42.1712H6.21797C6.0058 42.1712 5.80231 42.2555 5.65228 42.4055C5.50226 42.5555 5.41797 42.759 5.41797 42.9712V46.1904H58.338V42.9712C58.338 42.759 58.2537 42.5555 58.1036 42.4055C57.9536 42.2555 57.7501 42.1712 57.538 42.1712Z" fill="#F0F0F0" stroke="#45413C" stroke-width="1.4" stroke-linecap="round" stroke-linejoin="round"/>
<path d="M58.338 46.1904H5.41797C5.82079 46.9957 6.43985 47.6729 7.2058 48.1463C7.97176 48.6196 8.85436 48.8704 9.75477 48.8704H54.0228C54.9165 48.87 55.7926 48.621 56.5529 48.1512C57.3133 47.6815 57.928 47.0095 58.3284 46.2104L58.338 46.1904Z" fill="#BDBEC0" stroke="#45413C" stroke-width="1.4" stroke-linecap="round" stroke-linejoin="round"/>
<path d="M52.7204 14.0368H11.0404C10.6161 14.0368 10.2091 14.2054 9.90906 14.5055C9.609 14.8055 9.44043 15.2125 9.44043 15.6368V42.1712H54.3204V15.6368C54.3204 15.2125 54.1519 14.8055 53.8518 14.5055C53.5517 14.2054 53.1448 14.0368 52.7204 14.0368Z" fill="#00B8F0"/>
<path d="M52.7204 14.0368H11.0404C10.6161 14.0368 10.2091 14.2054 9.90906 14.5055C9.609 14.8055 9.44043 15.2125 9.44043 15.6368V42.1712H54.3204V15.6368C54.3204 15.2125 54.1519 14.8055 53.8518 14.5055C53.5517 14.2054 53.1448 14.0368 52.7204 14.0368Z" stroke="#45413C" stroke-width="1.4" stroke-miterlimit="10"/>
<path d="M31.8778 37.3736C29.9908 37.3787 28.1217 37.0094 26.3784 36.2873C24.6351 35.5651 23.0524 34.5043 21.7218 33.1664L21.2258 32.6704C20.9474 32.392 20.791 32.0145 20.791 31.6208C20.791 31.2271 20.9474 30.8496 21.2258 30.5712C21.5041 30.2928 21.8817 30.1365 22.2754 30.1365C22.6691 30.1365 23.0466 30.2928 23.325 30.5712L23.821 31.0672C24.879 32.1253 26.1352 32.9647 27.5176 33.5373C28.9001 34.11 30.3818 34.4047 31.8782 34.4047C33.3745 34.4047 34.8563 34.11 36.2387 33.5373C37.6212 32.9647 38.8773 32.1253 39.9354 31.0672L40.4298 30.5712C40.7081 30.2926 41.0858 30.136 41.4796 30.1359C41.8734 30.1357 42.2512 30.292 42.5298 30.5704C42.8084 30.8488 42.9649 31.2264 42.9651 31.6203C42.9652 32.0141 42.8089 32.3918 42.5306 32.6704L42.0354 33.1664C40.7044 34.5043 39.1213 35.5649 37.3778 36.2871C35.6343 37.0092 33.7649 37.3785 31.8778 37.3736Z" fill="white" stroke="#009FD9" stroke-width="1.4" stroke-miterlimit="10"/>
<path d="M26.3584 28.7C25.9648 28.6996 25.5875 28.543 25.3093 28.2646C25.031 27.9862 24.8746 27.6088 24.8744 27.2152V23.0192C24.8698 22.8214 24.9048 22.6246 24.9774 22.4405C25.0499 22.2564 25.1585 22.0886 25.2968 21.9471C25.4351 21.8055 25.6003 21.6931 25.7827 21.6163C25.965 21.5395 26.1609 21.4999 26.3588 21.4999C26.5567 21.4999 26.7526 21.5395 26.935 21.6163C27.1174 21.6931 27.2826 21.8055 27.4208 21.9471C27.5591 22.0886 27.6677 22.2564 27.7403 22.4405C27.8128 22.6246 27.8478 22.8214 27.8432 23.0192V27.2152C27.843 27.6089 27.6865 27.9865 27.4081 28.2649C27.1297 28.5433 26.7522 28.6998 26.3584 28.7Z" fill="white" stroke="#009FD9" stroke-width="1.4" stroke-miterlimit="10"/>
<path d="M37.3969 28.7C37.0032 28.6996 36.6258 28.543 36.3475 28.2646C36.0691 27.9863 35.9125 27.6089 35.9121 27.2152V23.0192C35.9121 22.8242 35.9505 22.6311 36.0251 22.451C36.0998 22.2708 36.2091 22.1072 36.347 21.9693C36.4849 21.8314 36.6486 21.722 36.8287 21.6474C37.0088 21.5728 37.2019 21.5344 37.3969 21.5344C37.5919 21.5344 37.785 21.5728 37.9651 21.6474C38.1453 21.722 38.3089 21.8314 38.4468 21.9693C38.5847 22.1072 38.6941 22.2708 38.7687 22.451C38.8433 22.6311 38.8817 22.8242 38.8817 23.0192V27.2152C38.8813 27.6089 38.7247 27.9863 38.4464 28.2646C38.168 28.543 37.7906 28.6996 37.3969 28.7Z" fill="white" stroke="#009FD9" stroke-width="1.4" stroke-miterlimit="10"/>
</svg>

