<svg width="64" height="64" viewBox="0 0 64 64" fill="none" xmlns="http://www.w3.org/2000/svg">
<path d="M0 32C0 40.4869 3.37142 48.6263 9.37258 54.6274C15.3737 60.6286 23.5131 64 32 64C40.4869 64 48.6263 60.6286 54.6274 54.6274C60.6286 48.6263 64 40.4869 64 32C64 23.5131 60.6286 15.3737 54.6274 9.37258C48.6263 3.37142 40.4869 0 32 0C23.5131 0 15.3737 3.37142 9.37258 9.37258C3.37142 15.3737 0 23.5131 0 32Z" fill="#7029F5"/>
<path opacity="0.15" d="M3.16113 52.1424C3.16113 52.5668 6.1858 52.9737 11.5697 53.2738C16.9537 53.5738 24.2559 53.7424 31.8699 53.7424C39.484 53.7424 46.7862 53.5738 52.1701 53.2738C57.5541 52.9737 60.5787 52.5668 60.5787 52.1424C60.5787 51.7181 57.5541 51.3111 52.1701 51.011C46.7862 50.711 39.484 50.5424 31.8699 50.5424C24.2559 50.5424 16.9537 50.711 11.5697 51.011C6.1858 51.3111 3.16113 51.7181 3.16113 52.1424Z" fill="#45413C"/>
<path d="M7.51959 11.5304L14.0796 9.74237C15.1223 9.45844 16.2144 9.40575 17.2796 9.58797L30.6172 11.8744C31.4455 12.0168 32.2921 12.0168 33.1204 11.8744L46.458 9.58797C47.5232 9.40572 48.6153 9.45842 49.658 9.74237L56.218 11.5304C56.806 11.6908 57.325 12.0401 57.695 12.5246C58.0649 13.009 58.2653 13.6016 58.2652 14.2112V49.4864C58.2651 49.7712 58.1994 50.0522 58.0731 50.3075C57.9468 50.5628 57.7634 50.7855 57.537 50.9584C57.3106 51.1313 57.0475 51.2497 56.7679 51.3043C56.4884 51.359 56.2 51.3485 55.9252 51.2736L49.6612 49.5648C48.6186 49.2804 47.5263 49.2277 46.4612 49.4104L33.1196 51.6968C32.2912 51.8384 31.4448 51.8384 30.6164 51.6968L17.2796 49.4104C16.2144 49.2277 15.1222 49.2804 14.0796 49.5648L7.81559 51.2736C7.54078 51.3485 7.2524 51.359 6.97286 51.3043C6.69332 51.2497 6.43014 51.1313 6.20378 50.9584C5.97742 50.7855 5.79396 50.5628 5.66767 50.3075C5.54138 50.0522 5.47565 49.7712 5.47559 49.4864V14.2112C5.47532 13.6021 5.67523 13.0097 6.04455 12.5254C6.41387 12.041 6.93213 11.6914 7.51959 11.5304Z" fill="#9CEB60"/>
<path d="M48.0801 49.3136C48.6156 49.3398 49.1467 49.424 49.6641 49.5648L55.9273 51.2736C56.2021 51.3485 56.4905 51.359 56.77 51.3044C57.0495 51.2497 57.3127 51.1313 57.5391 50.9585C57.7655 50.7856 57.9489 50.5628 58.0752 50.3075C58.2015 50.0522 58.2672 49.7712 58.2673 49.4864V30.6112L48.0801 27.8328V49.3136Z" fill="#FFE500"/>
<path d="M18.4415 24.6048V9.78721L17.2815 9.58801C16.2163 9.406 15.1242 9.45869 14.0815 9.74241L7.51986 11.5304C6.93181 11.6908 6.41283 12.0402 6.04289 12.5246C5.67295 13.009 5.47258 13.6017 5.47266 14.2112V26.9064L15.6631 24.128L18.4415 24.6048Z" fill="#FFE500"/>
<path d="M21.2197 28.7848V37.5848L31.8701 39.4104L45.2981 37.108V28.308L31.8701 30.6112L21.2197 28.7848Z" fill="#4ACFFF"/>
<path d="M37.8892 25.8744V11.0568L35.1108 11.5368V26.3512L31.87 26.9064L21.2196 25.0808V10.2632L18.4412 9.78718V24.6048L15.6628 24.1248L5.47559 26.9064V30.6112L15.6628 27.8328L18.4412 28.3128V49.6096L21.2196 50.0856V40.3616L31.87 42.1872L45.298 39.8848V49.6096L46.458 49.4104C46.9922 49.3187 47.535 49.2863 48.0764 49.3136V27.8328L58.2636 30.6112V26.9064L48.0796 24.128L37.8892 25.8744ZM45.298 37.1064L31.87 39.4088L21.2196 37.5832V28.7832L31.87 30.6096L45.298 28.3072V37.1064Z" fill="white" stroke="#C0DCEB" stroke-width="1.4" stroke-linecap="round" stroke-linejoin="round"/>
<path d="M48.0771 9.49037V49.3128" stroke="#87898C" stroke-width="1.4" stroke-linecap="round" stroke-linejoin="round"/>
<path d="M31.8701 51.8032V11.9808" stroke="#87898C" stroke-width="1.4" stroke-linecap="round" stroke-linejoin="round"/>
<path d="M15.6631 9.49037V49.3128" stroke="#87898C" stroke-width="1.4" stroke-linecap="round" stroke-linejoin="round"/>
<path d="M7.51959 11.5304L14.0796 9.74237C15.1223 9.45844 16.2144 9.40575 17.2796 9.58797L30.6172 11.8744C31.4455 12.0168 32.2921 12.0168 33.1204 11.8744L46.458 9.58797C47.5232 9.40572 48.6153 9.45842 49.658 9.74237L56.218 11.5304C56.806 11.6908 57.325 12.0401 57.695 12.5246C58.0649 13.009 58.2653 13.6016 58.2652 14.2112V49.4864C58.2651 49.7712 58.1994 50.0522 58.0731 50.3075C57.9468 50.5628 57.7634 50.7856 57.537 50.9584C57.3106 51.1313 57.0475 51.2497 56.7679 51.3043C56.4884 51.359 56.2 51.3485 55.9252 51.2736L49.6612 49.5648C48.6186 49.2804 47.5263 49.2277 46.4612 49.4104L33.1196 51.6968C32.2912 51.8384 31.4448 51.8384 30.6164 51.6968L17.2796 49.4104C16.2144 49.2277 15.1222 49.2804 14.0796 49.5648L7.81559 51.2736C7.54078 51.3485 7.2524 51.359 6.97286 51.3043C6.69332 51.2497 6.43014 51.1313 6.20378 50.9584C5.97742 50.7856 5.79396 50.5628 5.66767 50.3075C5.54138 50.0522 5.47565 49.7712 5.47559 49.4864V14.2112C5.47532 13.6021 5.67523 13.0097 6.04455 12.5254C6.41387 12.041 6.93213 11.6914 7.51959 11.5304V11.5304Z" stroke="#45413C" stroke-width="1.4" stroke-linecap="round" stroke-linejoin="round"/>
<path opacity="0.15" d="M8.71777 23.6648C8.71777 24.156 8.9129 24.627 9.26021 24.9743C9.60753 25.3217 10.0786 25.5168 10.5698 25.5168C11.061 25.5168 11.532 25.3217 11.8793 24.9743C12.2267 24.627 12.4218 24.156 12.4218 23.6648C12.4218 23.1736 12.2267 22.7025 11.8793 22.3552C11.532 22.0079 11.061 21.8128 10.5698 21.8128C10.0786 21.8128 9.60753 22.0079 9.26021 22.3552C8.9129 22.7025 8.71777 23.1736 8.71777 23.6648Z" fill="#45413C"/>
<path opacity="0.15" d="M21.6836 43.1136C21.6836 43.6048 21.8787 44.0758 22.226 44.4231C22.5733 44.7705 23.0444 44.9656 23.5356 44.9656C24.0268 44.9656 24.4978 44.7705 24.8452 44.4231C25.1925 44.0758 25.3876 43.6048 25.3876 43.1136C25.3876 42.6224 25.1925 42.1513 24.8452 41.804C24.4978 41.4567 24.0268 41.2616 23.5356 41.2616C23.0444 41.2616 22.5733 41.4567 22.226 41.804C21.8787 42.1513 21.6836 42.6224 21.6836 43.1136Z" fill="#45413C"/>
<path opacity="0.15" d="M39.2793 23.6648C39.2793 24.156 39.4744 24.627 39.8217 24.9743C40.1691 25.3217 40.6401 25.5168 41.1313 25.5168C41.6225 25.5168 42.0935 25.3217 42.4409 24.9743C42.7882 24.627 42.9833 24.156 42.9833 23.6648C42.9833 23.1736 42.7882 22.7025 42.4409 22.3552C42.0935 22.0079 41.6225 21.8128 41.1313 21.8128C40.6401 21.8128 40.1691 22.0079 39.8217 22.3552C39.4744 22.7025 39.2793 23.1736 39.2793 23.6648Z" fill="#45413C"/>
<path opacity="0.15" d="M51.7812 47.744C51.7812 47.9872 51.8292 48.2281 51.9222 48.4528C52.0153 48.6774 52.1517 48.8816 52.3237 49.0536C52.4957 49.2256 52.6998 49.362 52.9245 49.455C53.1492 49.5481 53.39 49.596 53.6333 49.596C53.8765 49.596 54.1173 49.5481 54.342 49.455C54.5667 49.362 54.7708 49.2256 54.9428 49.0536C55.1148 48.8816 55.2512 48.6774 55.3443 48.4528C55.4373 48.2281 55.4853 47.9872 55.4853 47.744C55.4853 47.5008 55.4373 47.26 55.3443 47.0353C55.2512 46.8106 55.1148 46.6064 54.9428 46.4345C54.7708 46.2625 54.5667 46.1261 54.342 46.033C54.1173 45.9399 53.8765 45.892 53.6333 45.892C53.39 45.892 53.1492 45.9399 52.9245 46.033C52.6998 46.1261 52.4957 46.2625 52.3237 46.4345C52.1517 46.6064 52.0153 46.8106 51.9222 47.0353C51.8292 47.26 51.7812 47.5008 51.7812 47.744Z" fill="#45413C"/>
<path d="M55.9488 43.1136C55.9488 44.3936 53.6336 47.2808 53.6336 47.2808C53.6336 47.2808 51.3184 44.392 51.3184 43.1136C51.3184 42.4996 51.5623 41.9107 51.9965 41.4765C52.4307 41.0423 53.0195 40.7984 53.6336 40.7984C54.2476 40.7984 54.8365 41.0423 55.2706 41.4765C55.7048 41.9107 55.9488 42.4996 55.9488 43.1136Z" fill="#FF6242" stroke="#45413C" stroke-width="1.4" stroke-linecap="round" stroke-linejoin="round"/>
<path d="M25.8501 38.48C25.8501 39.76 23.5349 42.648 23.5349 42.648C23.5349 42.648 21.2197 39.76 21.2197 38.48C21.2197 37.866 21.4636 37.2771 21.8978 36.8429C22.332 36.4087 22.9209 36.1648 23.5349 36.1648C24.149 36.1648 24.7378 36.4087 25.172 36.8429C25.6062 37.2771 25.8501 37.866 25.8501 38.48Z" fill="#FF6242" stroke="#45413C" stroke-width="1.4" stroke-linecap="round" stroke-linejoin="round"/>
<path d="M12.8853 19.0344C12.8853 20.3144 10.5701 23.2024 10.5701 23.2024C10.5701 23.2024 8.25488 20.3136 8.25488 19.0344C8.25488 18.4203 8.4988 17.8315 8.93299 17.3973C9.36717 16.9631 9.95605 16.7192 10.5701 16.7192C11.1841 16.7192 11.773 16.9631 12.2072 17.3973C12.6414 17.8315 12.8853 18.4203 12.8853 19.0344Z" fill="#FF6242" stroke="#45413C" stroke-width="1.4" stroke-linecap="round" stroke-linejoin="round"/>
<path d="M46.2253 13.4784C46.2253 16.2912 41.1317 23.2 41.1317 23.2C41.1317 23.2 36.0381 16.2888 36.0381 13.476C36.0381 12.1251 36.5747 10.8295 37.53 9.87427C38.4852 8.91904 39.7808 8.38239 41.1317 8.38239C42.4826 8.38239 43.7782 8.91904 44.7334 9.87427C45.6886 10.8295 46.2253 12.1251 46.2253 13.476V13.4784Z" fill="#FF6242" stroke="#45413C" stroke-width="1.4" stroke-linecap="round" stroke-linejoin="round"/>
<path d="M38.8164 13.4784C38.8164 14.0925 39.0603 14.6813 39.4945 15.1155C39.9287 15.5497 40.5176 15.7936 41.1316 15.7936C41.7456 15.7936 42.3345 15.5497 42.7687 15.1155C43.2029 14.6813 43.4468 14.0925 43.4468 13.4784C43.4468 12.8644 43.2029 12.2755 42.7687 11.8413C42.3345 11.4071 41.7456 11.1632 41.1316 11.1632C40.5176 11.1632 39.9287 11.4071 39.4945 11.8413C39.0603 12.2755 38.8164 12.8644 38.8164 13.4784Z" fill="#E04122" stroke="#45413C" stroke-width="1.4" stroke-linecap="round" stroke-linejoin="round"/>
</svg>

