<svg width="64" height="64" viewBox="0 0 64 64" fill="none" xmlns="http://www.w3.org/2000/svg">
<path d="M0 32C0 40.4869 3.37142 48.6263 9.37258 54.6274C15.3737 60.6286 23.5131 64 32 64C40.4869 64 48.6263 60.6286 54.6274 54.6274C60.6286 48.6263 64 40.4869 64 32C64 23.5131 60.6286 15.3737 54.6274 9.37258C48.6263 3.37142 40.4869 0 32 0C23.5131 0 15.3737 3.37142 9.37258 9.37258C3.37142 15.3737 0 23.5131 0 32Z" fill="#7029F5"/>
<path opacity="0.15" d="M21.5205 53.8707C21.5205 54.2217 22.7286 54.5582 24.8789 54.8064C27.0293 55.0545 29.9458 55.1939 32.9869 55.1939C36.028 55.1939 38.9445 55.0545 41.0949 54.8064C43.2452 54.5582 44.4533 54.2217 44.4533 53.8707C44.4533 53.5198 43.2452 53.1832 41.0949 52.9351C38.9445 52.6869 36.028 52.5475 32.9869 52.5475C29.9458 52.5475 27.0293 52.6869 24.8789 52.9351C22.7286 53.1832 21.5205 53.5198 21.5205 53.8707Z" fill="#45413C"/>
<path d="M22 35.6391L39.0998 23.162L41.5953 26.5819L24.4954 39.0591L22 35.6391Z" fill="#656769"/>
<path d="M22.001 35.6419L22.417 36.2115L24.697 34.5483C24.8483 34.4386 25.0368 34.3932 25.2214 34.422C25.406 34.4508 25.5718 34.5514 25.6826 34.7019L28.533 32.6219C28.4232 32.4705 28.3778 32.2819 28.4068 32.0972C28.4357 31.9125 28.5366 31.7468 28.6874 31.6363L33.2474 28.3091C33.3987 28.1992 33.5874 28.1536 33.7723 28.1824C33.9571 28.2112 34.123 28.3119 34.2338 28.4627L37.0834 26.3827C36.9736 26.2312 36.9282 26.0424 36.9571 25.8576C36.986 25.6728 37.0869 25.5069 37.2378 25.3963L39.5178 23.7331L39.1018 23.1627L22.001 35.6419Z" fill="#87898C"/>
<path d="M33.2773 15.1823L38.9773 11.0232L53.1181 30.403L47.4182 34.5621L33.2773 15.1823Z" fill="#525252"/>
<path d="M41.0576 13.8734L46.7576 9.71431L56.7393 23.3942L51.0394 27.5532L41.0576 13.8734Z" fill="#525252"/>
<path d="M6.85742 38.8282L12.5574 34.6692L22.5391 48.3491L16.8392 52.5081L6.85742 38.8282Z" fill="#525252"/>
<path d="M10.4775 31.8186L16.1775 27.6596L30.3183 47.0394L24.6183 51.1984L10.4775 31.8186Z" fill="#525252"/>
<path d="M38.7457 28.6619C38.8002 28.7367 38.869 28.8001 38.9481 28.8483C39.0272 28.8966 39.1151 28.9287 39.2066 28.943C39.2982 28.9573 39.3916 28.9534 39.4816 28.9315C39.5717 28.9096 39.6565 28.8702 39.7313 28.8155L42.0145 27.1523L38.6873 22.5923L36.4073 24.2555C36.3324 24.3102 36.2691 24.3791 36.2209 24.4583C36.1728 24.5375 36.1407 24.6254 36.1265 24.717C36.1123 24.8086 36.1163 24.9021 36.1382 24.9922C36.1602 25.0822 36.1997 25.1671 36.2545 25.2419L38.7457 28.6619Z" fill="#ADC4D9"/>
<path d="M53.4122 18.8339L55.1226 17.5867C55.4248 17.3659 55.6269 17.0342 55.6847 16.6644C55.7425 16.2946 55.651 15.9171 55.4306 15.6147L53.7666 13.3347C53.6573 13.1849 53.5196 13.0582 53.3614 12.9617C53.2032 12.8652 53.0275 12.8008 52.8444 12.7722C52.6612 12.7436 52.4743 12.7513 52.2942 12.795C52.114 12.8387 51.9443 12.9174 51.7946 13.0267L50.085 14.2739L53.4122 18.8339Z" fill="#ADC4D9"/>
<path d="M9.83033 48.8867C10.051 49.189 10.3826 49.3913 10.7524 49.4492C11.1222 49.5071 11.4998 49.4159 11.8023 49.1955L13.5119 47.9475L10.1847 43.3875L8.47513 44.6355C8.32535 44.7446 8.19856 44.8821 8.102 45.0403C8.00544 45.1985 7.94101 45.3741 7.91241 45.5572C7.8838 45.7403 7.89157 45.9272 7.93528 46.1073C7.97899 46.2874 8.05778 46.4571 8.16713 46.6067L9.83033 48.8867Z" fill="#ADC4D9"/>
<path d="M24.9122 39.6291L27.1922 37.9659C27.2671 37.9113 27.3306 37.8424 27.3789 37.7633C27.4272 37.6842 27.4595 37.5963 27.4738 37.5047C27.4881 37.4131 27.4843 37.3195 27.4625 37.2294C27.4406 37.1393 27.4012 37.0544 27.3466 36.9795L24.8514 33.5619C24.7408 33.4108 24.5749 33.3098 24.3899 33.281C24.205 33.2522 24.0162 33.298 23.865 33.4083L21.585 35.0715L24.9122 39.6291Z" fill="#ADC4D9"/>
<path d="M27.2842 30.9101L32.9841 26.751L36.3114 31.311L30.6114 35.47L27.2842 30.9101Z" fill="#ADC4D9"/>
<path d="M36.2552 25.2419L37.0864 26.3819C36.9766 26.2304 36.9312 26.0416 36.9601 25.8568C36.989 25.672 37.09 25.5061 37.2408 25.3955L39.5208 23.7323L38.6888 22.5923L36.4088 24.2555C36.2581 24.3663 36.1573 24.5322 36.1286 24.717C36.0998 24.9018 36.1453 25.0905 36.2552 25.2419Z" fill="#C0DCEB"/>
<path d="M50.085 14.2739L50.917 15.4139L52.6266 14.1667C52.9293 13.947 53.3066 13.8561 53.6761 13.9138C54.0456 13.9716 54.3773 14.1732 54.5986 14.4747L53.7666 13.3347C53.5453 13.0332 53.2136 12.8316 52.8441 12.7738C52.4746 12.7161 52.0973 12.807 51.7946 13.0267L50.085 14.2739Z" fill="#C0DCEB"/>
<path d="M8.16719 46.6067L8.99919 47.7467C8.77958 47.4441 8.68871 47.0669 8.74642 46.6975C8.80414 46.3281 9.00575 45.9966 9.30719 45.7755L11.0168 44.5275L10.1848 43.3875L8.47519 44.6355C8.17375 44.8566 7.97214 45.1881 7.91442 45.5575C7.85671 45.9269 7.94759 46.3041 8.16719 46.6067Z" fill="#C0DCEB"/>
<path d="M21.585 35.0691L22.417 36.2091L24.697 34.5459C24.8483 34.4363 25.0368 34.3909 25.2214 34.4197C25.406 34.4484 25.5718 34.549 25.6826 34.6995L24.8514 33.5619C24.7404 33.4114 24.5745 33.3108 24.3898 33.282C24.205 33.2532 24.0164 33.2986 23.865 33.4083L21.585 35.0691Z" fill="#C0DCEB"/>
<path d="M27.7009 31.4819L28.5329 32.6219C28.4232 32.4706 28.3778 32.2819 28.4067 32.0972C28.4356 31.9125 28.5365 31.7468 28.6873 31.6363L33.2473 28.3091C33.3987 28.1992 33.5874 28.1537 33.7722 28.1825C33.957 28.2112 34.1229 28.312 34.2337 28.4627L33.4009 27.3219C33.2904 27.1711 33.1247 27.0702 32.94 27.0413C32.7553 27.0124 32.5666 27.0577 32.4153 27.1675L27.8553 30.4947C27.7041 30.6052 27.6029 30.7713 27.5739 30.9564C27.545 31.1414 27.5906 31.3304 27.7009 31.4819Z" fill="#C0DCEB"/>
<path d="M34.9412 17.4627L37.0212 20.3123C36.8026 20.0129 36.645 19.6734 36.5577 19.3131C36.4703 18.9529 36.4548 18.5789 36.512 18.2126C36.5692 17.8464 36.698 17.4949 36.8911 17.1785C37.0841 16.862 37.3377 16.5867 37.6372 16.3683L38.7772 15.5371C39.0766 15.3185 39.4161 15.1611 39.7764 15.0738C40.1366 14.9864 40.5106 14.9709 40.8768 15.0281C41.243 15.0853 41.5944 15.2141 41.9109 15.4072C42.2274 15.6002 42.5027 15.8536 42.7212 16.1531L40.6412 13.3035C40.4229 13.0039 40.1477 12.7503 39.8314 12.5572C39.515 12.364 39.1637 12.2351 38.7974 12.1778C38.4312 12.1206 38.0573 12.136 37.6971 12.2233C37.3369 12.3106 36.9974 12.4681 36.698 12.6867L35.558 13.5187C35.2584 13.737 35.0048 14.0123 34.8117 14.3287C34.6185 14.6452 34.4896 14.9966 34.4323 15.3629C34.375 15.7291 34.3905 16.1031 34.4778 16.4634C34.5651 16.8237 34.7226 17.1633 34.9412 17.4627Z" fill="#656769"/>
<path d="M42.7215 16.1531L44.8007 19.0019C44.5821 18.7025 44.4247 18.363 44.3374 18.0027C44.2501 17.6425 44.2346 17.2685 44.2918 16.9023C44.349 16.5361 44.4777 16.1847 44.6708 15.8682C44.8638 15.5517 45.1172 15.2764 45.4167 15.0579L46.5567 14.2259C46.8561 14.0073 47.1957 13.8498 47.556 13.7625C47.9163 13.6752 48.2902 13.6597 48.6565 13.717C49.0228 13.7743 49.3742 13.9032 49.6906 14.0963C50.007 14.2895 50.2823 14.5431 50.5007 14.8427L48.4207 11.9923C48.2023 11.6929 47.927 11.4394 47.6106 11.2464C47.2942 11.0534 46.9429 10.9246 46.5767 10.8674C46.2105 10.8102 45.8367 10.8257 45.4765 10.913C45.1163 11.0003 44.7768 11.1578 44.4775 11.3763L43.3375 12.2083C43.0378 12.4267 42.784 12.702 42.5908 13.0185C42.3976 13.335 42.2687 13.6866 42.2115 14.053C42.1543 14.4194 42.1699 14.7934 42.2574 15.1538C42.3449 15.5142 42.5026 15.8537 42.7215 16.1531Z" fill="#656769"/>
<path d="M33.2773 15.1823L38.9773 11.0232L53.1181 30.403L47.4182 34.5621L33.2773 15.1823Z" stroke="#45413C" stroke-width="1.4" stroke-linecap="round" stroke-linejoin="round"/>
<path d="M41.0576 13.8734L46.7576 9.71431L56.7393 23.3942L51.0394 27.5532L41.0576 13.8734Z" stroke="#45413C" stroke-width="1.4" stroke-linecap="round" stroke-linejoin="round"/>
<path d="M8.52121 41.1075L10.6012 43.9579C10.3826 43.6585 10.2251 43.3189 10.1378 42.9586C10.0505 42.5983 10.035 42.2243 10.0923 41.8581C10.1496 41.4918 10.2785 41.1404 10.4717 40.824C10.6648 40.5075 10.9184 40.2322 11.218 40.0139L12.358 39.1819C12.6575 38.9636 12.9971 38.8064 13.3574 38.7195C13.7177 38.6325 14.0916 38.6173 14.4577 38.6749C14.8238 38.7325 15.175 38.8616 15.4912 39.055C15.8074 39.2484 16.0824 39.5022 16.3004 39.8019L14.2204 36.9515C14.0019 36.652 13.7266 36.3986 13.4101 36.2056C13.0936 36.0125 12.7423 35.8838 12.376 35.8265C12.0098 35.7693 11.6358 35.7848 11.2756 35.8722C10.9153 35.9595 10.5758 36.1169 10.2764 36.3355L9.13481 37.1619C8.83525 37.3805 8.58172 37.656 8.38873 37.9727C8.19573 38.2894 8.06706 38.641 8.01008 39.0075C7.95309 39.3739 7.9689 39.748 8.0566 40.1084C8.14431 40.4687 8.30219 40.8082 8.52121 41.1075Z" fill="#656769"/>
<path d="M6.85742 38.8282L12.5574 34.6692L22.5391 48.3491L16.8392 52.5081L6.85742 38.8282Z" stroke="#45413C" stroke-width="1.4" stroke-linecap="round" stroke-linejoin="round"/>
<path d="M12.1411 34.0987L14.2211 36.9483C14.0026 36.649 13.8451 36.3095 13.7578 35.9493C13.6705 35.5891 13.655 35.2153 13.7122 34.8491C13.7694 34.4829 13.8982 34.1316 14.0912 33.8152C14.2842 33.4988 14.5377 33.2235 14.8371 33.0051L15.9771 32.1731C16.2765 31.9546 16.616 31.7971 16.9763 31.7098C17.3365 31.6225 17.7104 31.607 18.0767 31.6642C18.4429 31.7214 18.7943 31.8502 19.1108 32.0432C19.4272 32.2362 19.7026 32.4897 19.9211 32.7891L17.8411 29.9395C17.6227 29.64 17.3475 29.3865 17.0311 29.1934C16.7148 29.0004 16.3635 28.8715 15.9973 28.8142C15.6311 28.7569 15.2572 28.7724 14.897 28.8596C14.5368 28.9469 14.1973 29.1042 13.8979 29.3227L12.7579 30.1547C12.4584 30.3732 12.2049 30.6485 12.0118 30.9649C11.8187 31.2813 11.6898 31.6327 11.6325 31.999C11.5753 32.3652 11.5907 32.7391 11.6779 33.0994C11.7652 33.4597 11.9226 33.7993 12.1411 34.0987Z" fill="#656769"/>
<path d="M10.4775 31.8186L16.1775 27.6596L30.3183 47.0394L24.6183 51.1984L10.4775 31.8186Z" stroke="#45413C" stroke-width="1.4" stroke-linecap="round" stroke-linejoin="round"/>
<path d="M33.4004 27.3214L36.2504 25.2419L38.7458 28.6618L35.8958 30.7414L33.4004 27.3214Z" stroke="#45413C" stroke-width="1.4" stroke-linecap="round" stroke-linejoin="round"/>
<path d="M24.8506 33.5596L27.7006 31.48L30.196 34.9L27.346 36.9795L24.8506 33.5596Z" stroke="#45413C" stroke-width="1.4" stroke-linecap="round" stroke-linejoin="round"/>
<path d="M38.7457 28.6619C38.8002 28.7367 38.869 28.8001 38.9481 28.8483C39.0272 28.8966 39.1151 28.9287 39.2066 28.943C39.2982 28.9573 39.3916 28.9534 39.4816 28.9315C39.5717 28.9096 39.6565 28.8702 39.7313 28.8155L42.0145 27.1523L38.6873 22.5923L36.4073 24.2555C36.3324 24.3102 36.2691 24.3791 36.2209 24.4583C36.1728 24.5375 36.1407 24.6254 36.1265 24.717C36.1123 24.8086 36.1163 24.9021 36.1382 24.9922C36.1602 25.0822 36.1997 25.1671 36.2545 25.2419L38.7457 28.6619Z" stroke="#45413C" stroke-width="1.4" stroke-linecap="round" stroke-linejoin="round"/>
<path d="M53.4122 18.8339L55.1226 17.5867C55.4248 17.3659 55.6269 17.0342 55.6847 16.6644C55.7425 16.2946 55.651 15.9171 55.4306 15.6147L53.7666 13.3347C53.6573 13.1849 53.5196 13.0582 53.3614 12.9617C53.2032 12.8652 53.0275 12.8008 52.8444 12.7722C52.6612 12.7436 52.4743 12.7513 52.2942 12.795C52.114 12.8387 51.9443 12.9174 51.7946 13.0267L50.085 14.2739L53.4122 18.8339Z" stroke="#45413C" stroke-width="1.4" stroke-linecap="round" stroke-linejoin="round"/>
<path d="M9.83033 48.8867C10.051 49.189 10.3826 49.3913 10.7524 49.4492C11.1222 49.5071 11.4998 49.4159 11.8023 49.1955L13.5119 47.9475L10.1847 43.3875L8.47513 44.6355C8.32535 44.7446 8.19856 44.8821 8.102 45.0403C8.00544 45.1985 7.94101 45.3741 7.91241 45.5572C7.8838 45.7403 7.89157 45.9272 7.93528 46.1073C7.97899 46.2874 8.05778 46.4571 8.16713 46.6067L9.83033 48.8867Z" stroke="#45413C" stroke-width="1.4" stroke-linecap="round" stroke-linejoin="round"/>
<path d="M24.9122 39.6291L27.1922 37.9659C27.2671 37.9113 27.3306 37.8424 27.3789 37.7633C27.4272 37.6842 27.4595 37.5963 27.4738 37.5047C27.4881 37.4131 27.4843 37.3195 27.4625 37.2294C27.4406 37.1393 27.4012 37.0544 27.3466 36.9795L24.8514 33.5619C24.7408 33.4108 24.5749 33.3098 24.3899 33.281C24.205 33.2522 24.0162 33.298 23.865 33.4083L21.585 35.0715L24.9122 39.6291Z" stroke="#45413C" stroke-width="1.4" stroke-linecap="round" stroke-linejoin="round"/>
<path d="M27.2842 30.9101L32.9841 26.751L36.3114 31.311L30.6114 35.47L27.2842 30.9101Z" stroke="#45413C" stroke-width="1.4" stroke-linecap="round" stroke-linejoin="round"/>
</svg>

