<svg width="103" height="209" viewBox="0 0 103 209" fill="none" xmlns="http://www.w3.org/2000/svg">
<path d="M81.8869 29.4756C81.8869 35.2276 86.5498 39.8906 92.3018 39.8906C98.0539 39.8906 102.717 35.2276 102.717 29.4756C102.717 23.7236 98.0539 19.0607 92.3018 19.0607C86.5498 19.0607 81.8869 23.7236 81.8869 29.4756Z" fill="#FAE54E"/>
<path fill-rule="evenodd" clip-rule="evenodd" d="M87.7453 32.9472C83.3114 32.9472 79.7171 29.3529 79.7171 24.919C79.7171 20.4852 83.3114 16.8908 87.7453 16.8908C92.1791 16.8908 95.7735 20.4852 95.7735 24.919C95.7735 29.3529 92.1791 32.9472 87.7453 32.9472ZM87.7453 36.4189C81.3941 36.4189 76.2454 31.2702 76.2454 24.919C76.2454 18.5678 81.3941 13.4192 87.7453 13.4192C94.0965 13.4192 99.2451 18.5678 99.2451 24.919C99.2451 31.2702 94.0965 36.4189 87.7453 36.4189Z" fill="#453A8F"/>
<path d="M0 189.507L13.5016 176.006L27.0031 189.507L13.5016 203.009L0 189.507Z" fill="#59D2AE"/>
<path fill-rule="evenodd" clip-rule="evenodd" d="M8.59176 187.052L19.0248 176.619C20.55 175.094 23.0229 175.094 24.5481 176.619L34.9812 187.052C36.5064 188.578 36.5064 191.05 34.9812 192.576L24.5481 203.009C23.0229 204.534 20.55 204.534 19.0248 203.009L8.59176 192.576C7.06653 191.05 7.06652 188.578 8.59176 187.052ZM11.0466 189.507C10.8771 189.677 10.8771 189.951 11.0466 190.121L21.4796 200.554C21.6491 200.723 21.9238 200.723 22.0933 200.554L32.5263 190.121C32.6958 189.951 32.6958 189.677 32.5263 189.507L22.0933 179.074C21.9238 178.905 21.6491 178.905 21.4796 179.074L11.0466 189.507Z" fill="#453A8F"/>
<path d="M13.49 2.1699C13.49 3.36824 12.5185 4.33969 11.3202 4.33969C10.1218 4.33969 9.15039 3.36824 9.15039 2.1699C9.15039 0.971567 10.1218 0.00012207 11.3202 0.00012207C12.5185 0.00012207 13.49 0.971567 13.49 2.1699Z" fill="#453A8F"/>
<path d="M13.489 9.98106C13.489 11.1794 12.5175 12.1508 11.3192 12.1508C10.1209 12.1508 9.14941 11.1794 9.14941 9.98106C9.14941 8.78272 10.1209 7.81128 11.3192 7.81128C12.5175 7.81128 13.489 8.78272 13.489 9.98106Z" fill="#453A8F"/>
<path d="M13.489 17.7922C13.489 18.9906 12.5175 19.962 11.3192 19.962C10.1209 19.962 9.14941 18.9906 9.14941 17.7922C9.14941 16.5939 10.1209 15.6224 11.3192 15.6224C12.5175 15.6224 13.489 16.5939 13.489 17.7922Z" fill="#453A8F"/>
<path d="M21.3005 2.16978C21.3005 3.36812 20.3291 4.33956 19.1307 4.33956C17.9324 4.33956 16.9609 3.36812 16.9609 2.16978C16.9609 0.971445 17.9324 0 19.1307 0C20.3291 0 21.3005 0.971445 21.3005 2.16978Z" fill="#453A8F"/>
<path d="M21.3005 9.98106C21.3005 11.1794 20.3291 12.1508 19.1307 12.1508C17.9324 12.1508 16.9609 11.1794 16.9609 9.98106C16.9609 8.78272 17.9324 7.81128 19.1307 7.81128C20.3291 7.81128 21.3005 8.78272 21.3005 9.98106Z" fill="#453A8F"/>
<path d="M21.3005 17.7922C21.3005 18.9906 20.3291 19.962 19.1307 19.962C17.9324 19.962 16.9609 18.9906 16.9609 17.7922C16.9609 16.5939 17.9324 15.6224 19.1307 15.6224C20.3291 15.6224 21.3005 16.5939 21.3005 17.7922Z" fill="#453A8F"/>
<path d="M29.111 2.16978C29.111 3.36812 28.1396 4.33956 26.9413 4.33956C25.7429 4.33956 24.7715 3.36812 24.7715 2.16978C24.7715 0.971445 25.7429 0 26.9413 0C28.1396 0 29.111 0.971445 29.111 2.16978Z" fill="#453A8F"/>
<path d="M29.111 9.98106C29.111 11.1794 28.1396 12.1508 26.9413 12.1508C25.7429 12.1508 24.7715 11.1794 24.7715 9.98106C24.7715 8.78272 25.7429 7.81128 26.9413 7.81128C28.1396 7.81128 29.111 8.78272 29.111 9.98106Z" fill="#453A8F"/>
<path d="M29.111 17.7922C29.111 18.9906 28.1396 19.962 26.9413 19.962C25.7429 19.962 24.7715 18.9906 24.7715 17.7922C24.7715 16.5939 25.7429 15.6224 26.9413 15.6224C28.1396 15.6224 29.111 16.5939 29.111 17.7922Z" fill="#453A8F"/>
<path d="M59.4191 103.091C60.097 102.413 61.196 102.413 61.8739 103.091L71.0795 112.296C71.7574 112.974 71.7574 114.073 71.0795 114.751C70.4016 115.429 69.3026 115.429 68.6247 114.751L59.4191 105.546C58.7412 104.868 58.7412 103.769 59.4191 103.091Z" fill="#453A8F"/>
<path d="M55.5138 110.902C56.1917 110.224 57.2907 110.224 57.9686 110.902L67.1742 120.108C67.8521 120.786 67.8521 121.885 67.1742 122.563C66.4963 123.24 65.3973 123.24 64.7194 122.563L55.5138 113.357C54.8359 112.679 54.8359 111.58 55.5138 110.902Z" fill="#453A8F"/>
</svg>

