<svg width="66" height="64" viewBox="0 0 66 64" fill="none" xmlns="http://www.w3.org/2000/svg">
<path d="M1 32C1 40.4869 4.37142 48.6263 10.3726 54.6274C16.3737 60.6286 24.5131 64 33 64C41.4869 64 49.6263 60.6286 55.6274 54.6274C61.6286 48.6263 65 40.4869 65 32C65 23.5131 61.6286 15.3737 55.6274 9.37258C49.6263 3.37142 41.4869 0 33 0C24.5131 0 16.3737 3.37142 10.3726 9.37258C4.37142 15.3737 1 23.5131 1 32Z" fill="#7029F5"/>
<path d="M18.6156 37.2536L11.9596 43.9104C11.7437 44.1274 11.4681 44.2755 11.1679 44.3356C10.8678 44.3958 10.5565 44.3654 10.2736 44.2483C9.99069 44.1312 9.74898 43.9327 9.57913 43.6779C9.40928 43.4232 9.31895 43.1238 9.31961 42.8176V37.2536H5.31961C4.83121 37.2539 4.34753 37.158 3.89621 36.9713C3.44489 36.7846 3.03478 36.5108 2.68932 36.1656C2.34385 35.8203 2.0698 35.4104 1.88282 34.9592C1.69585 34.508 1.59961 34.0244 1.59961 33.536V14.3264C1.59961 13.838 1.69585 13.3544 1.88284 12.9033C2.06983 12.4521 2.34389 12.0423 2.68937 11.6971C3.03484 11.3519 3.44496 11.0782 3.89627 10.8916C4.34758 10.705 4.83124 10.6092 5.31961 10.6096H33.2636C34.2494 10.6096 35.1948 11.0012 35.8918 11.6982C36.5888 12.3953 36.9804 13.3406 36.9804 14.3264V33.536C36.9804 34.5218 36.5888 35.4673 35.8918 36.1644C35.1948 36.8616 34.2494 37.2534 33.2636 37.2536H18.6156Z" fill="white" stroke="#45413C" stroke-width="1.4" stroke-linecap="round" stroke-linejoin="round"/>
<path d="M27.1658 29.5832C27.2807 29.4683 27.3719 29.332 27.4341 29.1819C27.4963 29.0318 27.5283 28.8709 27.5283 28.7084C27.5283 28.5459 27.4963 28.385 27.4341 28.2349C27.3719 28.0848 27.2807 27.9485 27.1658 27.8336L23.6658 24.3336C23.5498 24.2175 23.4847 24.0601 23.4847 23.896C23.4847 23.7319 23.5498 23.5745 23.6658 23.4584L27.1658 19.9584C27.2807 19.8435 27.3719 19.7072 27.4341 19.5571C27.4963 19.407 27.5283 19.2461 27.5283 19.0836C27.5283 18.9211 27.4963 18.7602 27.4341 18.6101C27.3719 18.46 27.2807 18.3237 27.1658 18.2088L24.9778 16.0216C24.863 15.9067 24.7266 15.8155 24.5765 15.7533C24.4264 15.6911 24.2655 15.6591 24.103 15.6591C23.9405 15.6591 23.7796 15.6911 23.6295 15.7533C23.4794 15.8155 23.3431 15.9067 23.2282 16.0216L19.7282 19.52C19.6121 19.636 19.4547 19.7011 19.2906 19.7011C19.1265 19.7011 18.9691 19.636 18.853 19.52L15.353 16.02C15.2382 15.9051 15.1018 15.8139 14.9517 15.7517C14.8016 15.6895 14.6407 15.6575 14.4782 15.6575C14.3157 15.6575 14.1548 15.6895 14.0047 15.7517C13.8546 15.8139 13.7183 15.9051 13.6034 16.02L11.4162 18.2088C11.3013 18.3237 11.2101 18.46 11.1479 18.6101C11.0857 18.7602 11.0537 18.9211 11.0537 19.0836C11.0537 19.2461 11.0857 19.407 11.1479 19.5571C11.2101 19.7072 11.3013 19.8435 11.4162 19.9584L14.9202 23.4584C15.0358 23.5747 15.1007 23.732 15.1007 23.896C15.1007 24.06 15.0358 24.2173 14.9202 24.3336L11.4162 27.8336C11.3013 27.9485 11.2101 28.0848 11.1479 28.2349C11.0857 28.385 11.0537 28.5459 11.0537 28.7084C11.0537 28.8709 11.0857 29.0318 11.1479 29.1819C11.2101 29.332 11.3013 29.4683 11.4162 29.5832L13.6034 31.7712C13.7183 31.8861 13.8546 31.9773 14.0047 32.0395C14.1548 32.1017 14.3157 32.1337 14.4782 32.1337C14.6407 32.1337 14.8016 32.1017 14.9517 32.0395C15.1018 31.9773 15.2382 31.8861 15.353 31.7712L18.853 28.2712C18.9691 28.1552 19.1265 28.0901 19.2906 28.0901C19.4547 28.0901 19.6121 28.1552 19.7282 28.2712L23.2282 31.7712C23.3431 31.8861 23.4794 31.9773 23.6295 32.0395C23.7796 32.1017 23.9405 32.1337 24.103 32.1337C24.2655 32.1337 24.4264 32.1017 24.5765 32.0395C24.7266 31.9773 24.863 31.8861 24.9778 31.7712L27.1658 29.5832Z" fill="#FF6242" stroke="#E04122" stroke-width="1.4" stroke-linecap="round" stroke-linejoin="round"/>
<path d="M47.9601 46.3144L54.5577 52.9112C54.7717 53.1253 55.0445 53.2712 55.3414 53.3302C55.6384 53.3893 55.9461 53.359 56.2258 53.2432C56.5056 53.1273 56.7446 52.9311 56.9128 52.6793C57.0809 52.4275 57.1706 52.1315 57.1705 51.8288V46.3144H61.1409C62.1174 46.3131 63.0534 45.9243 63.7434 45.2334C64.4334 44.5425 64.8209 43.606 64.8209 42.6296V23.592C64.8209 22.6156 64.4333 21.6792 63.7433 20.9884C63.0533 20.2977 62.1173 19.909 61.1409 19.908H33.4417C32.4654 19.909 31.5293 20.2977 30.8393 20.9884C30.1493 21.6792 29.7617 22.6156 29.7617 23.592V42.632C29.7617 43.6084 30.1493 44.5449 30.8393 45.2358C31.5293 45.9267 32.4653 46.3155 33.4417 46.3168L47.9601 46.3144Z" fill="white" stroke="#45413C" stroke-width="1.4" stroke-linecap="round" stroke-linejoin="round"/>
<path d="M57.063 29.7536C57.3702 29.5007 57.5645 29.1362 57.603 28.7402C57.6416 28.3441 57.5213 27.949 57.2686 27.6416L55.5998 25.6136C55.4746 25.4614 55.3206 25.3354 55.1467 25.2428C54.9728 25.1501 54.7823 25.0926 54.5862 25.0736C54.3901 25.0546 54.1921 25.0744 54.0036 25.1319C53.8152 25.1894 53.6399 25.2835 53.4878 25.4088L43.9278 33.2752L41.7822 30.668C41.5293 30.3607 41.1648 30.1665 40.7687 30.1279C40.3727 30.0894 39.9775 30.2097 39.6702 30.4624L37.6398 32.1312C37.4876 32.2564 37.3616 32.4103 37.2689 32.5843C37.1763 32.7582 37.1188 32.9486 37.0998 33.1448C37.0808 33.3409 37.1006 33.5389 37.1581 33.7273C37.2156 33.9158 37.3097 34.0911 37.435 34.2432L39.5798 36.8504L42.2022 40.0368C42.455 40.3441 42.8195 40.5383 43.2156 40.5769C43.6116 40.6154 44.0068 40.4951 44.3142 40.2424L47.5014 37.62L57.063 29.7536Z" fill="#6DD627" stroke="#46B000" stroke-width="1.4" stroke-linecap="round" stroke-linejoin="round"/>
</svg>

