<svg width="64" height="64" viewBox="0 0 64 64" fill="none" xmlns="http://www.w3.org/2000/svg">
<path d="M0 32C0 40.4869 3.37142 48.6263 9.37258 54.6274C15.3737 60.6286 23.5131 64 32 64C40.4869 64 48.6263 60.6286 54.6274 54.6274C60.6286 48.6263 64 40.4869 64 32C64 23.5131 60.6286 15.3737 54.6274 9.37258C48.6263 3.37142 40.4869 0 32 0C23.5131 0 15.3737 3.37142 9.37258 9.37258C3.37142 15.3737 0 23.5131 0 32Z" fill="#7029F5"/>
<path d="M42.8645 22.0384L31.9997 29.94L21.1349 22.0384C20.8623 21.8404 20.6405 21.5806 20.4876 21.2804C20.3346 20.9802 20.2549 20.6481 20.2549 20.3112V6.98481C20.2549 6.70441 20.3101 6.42676 20.4174 6.1677C20.5247 5.90865 20.682 5.67327 20.8803 5.475C21.0785 5.27672 21.3139 5.11945 21.573 5.01214C21.832 4.90484 22.1097 4.84961 22.3901 4.84961H41.6093C42.1756 4.84961 42.7187 5.07457 43.1191 5.475C43.5195 5.87542 43.7445 6.41852 43.7445 6.98481V20.3112C43.7445 20.6481 43.6647 20.9802 43.5118 21.2804C43.3588 21.5806 43.137 21.8404 42.8645 22.0384Z" fill="#FF6242"/>
<path d="M41.6093 4.84961H22.3901C22.1097 4.84961 21.832 4.90484 21.573 5.01214C21.3139 5.11945 21.0785 5.27672 20.8803 5.475C20.682 5.67327 20.5247 5.90865 20.4174 6.1677C20.3101 6.42676 20.2549 6.70441 20.2549 6.98481V11.256C20.2549 10.6896 20.4798 10.1465 20.8802 9.74591C21.2806 9.34536 21.8237 9.12022 22.3901 9.12001H41.6093C42.1756 9.12022 42.7187 9.34536 43.1191 9.74591C43.5196 10.1465 43.7445 10.6896 43.7445 11.256V6.98481C43.7445 6.41852 43.5195 5.87542 43.1191 5.475C42.7187 5.07457 42.1756 4.84961 41.6093 4.84961Z" fill="#FFA694"/>
<path d="M42.8645 22.0384L31.9997 29.94L21.1349 22.0384C20.8623 21.8404 20.6405 21.5806 20.4876 21.2804C20.3346 20.9802 20.2549 20.6481 20.2549 20.3112V6.98481C20.2549 6.70441 20.3101 6.42676 20.4174 6.1677C20.5247 5.90865 20.682 5.67327 20.8803 5.475C21.0785 5.27672 21.3139 5.11945 21.573 5.01214C21.832 4.90484 22.1097 4.84961 22.3901 4.84961H41.6093C42.1756 4.84961 42.7187 5.07457 43.1191 5.475C43.5195 5.87542 43.7445 6.41852 43.7445 6.98481V20.3112C43.7445 20.6481 43.6647 20.9802 43.5118 21.2804C43.3588 21.5806 43.137 21.8404 42.8645 22.0384Z" stroke="#45413C" stroke-width="1.4" stroke-linecap="round" stroke-linejoin="round"/>
<path d="M26.6611 26.0576L31.9995 29.94L37.3379 26.0576V4.84961H26.6611V26.0576Z" fill="#6DD627"/>
<path d="M26.6611 4.84961H37.3379V9.12001H26.6611V4.84961Z" fill="#9CEB60"/>
<path d="M26.6611 26.0576L31.9995 29.94L37.3379 26.0576V4.84961H26.6611V26.0576Z" stroke="#45413C" stroke-width="1.4" stroke-linecap="round" stroke-linejoin="round"/>
<path d="M27.2598 39.46L30.835 33.736C30.9584 33.5383 31.13 33.3752 31.3338 33.2621C31.5376 33.149 31.7668 33.0897 31.9998 33.0897C32.2329 33.0897 32.4621 33.149 32.6659 33.2621C32.8696 33.3752 33.0413 33.5383 33.1646 33.736L36.7398 39.46L43.4846 39.6944C43.7175 39.7025 43.9444 39.7698 44.1441 39.8898C44.3438 40.0098 44.5097 40.1786 44.6262 40.3804C44.7427 40.5822 44.8059 40.8102 44.81 41.0432C44.8141 41.2761 44.7588 41.5063 44.6494 41.712L41.4798 47.6696L44.6494 53.628C44.7588 53.8337 44.8141 54.0639 44.81 54.2968C44.8059 54.5298 44.7427 54.7578 44.6262 54.9596C44.5097 55.1614 44.3438 55.3302 44.1441 55.4502C43.9444 55.5702 43.7175 55.6374 43.4846 55.6456L36.7398 55.8792L33.1646 61.604C33.0411 61.8015 32.8695 61.9645 32.6657 62.0774C32.4619 62.1903 32.2328 62.2496 31.9998 62.2496C31.7669 62.2496 31.5377 62.1903 31.334 62.0774C31.1302 61.9645 30.9585 61.8015 30.835 61.604L27.2598 55.8792L20.515 55.6456C20.2822 55.6374 20.0552 55.5702 19.8555 55.4502C19.6558 55.3302 19.4899 55.1614 19.3735 54.9596C19.257 54.7578 19.1937 54.5298 19.1897 54.2968C19.1856 54.0639 19.2408 53.8337 19.3502 53.628L22.5198 47.6696L19.3502 41.712C19.2408 41.5063 19.1856 41.2761 19.1897 41.0432C19.1937 40.8102 19.257 40.5822 19.3735 40.3804C19.4899 40.1786 19.6558 40.0098 19.8555 39.8898C20.0552 39.7698 20.2822 39.7025 20.515 39.6944L27.2598 39.46Z" fill="#FFE500"/>
<path d="M25.5414 55.82L20.515 55.6456C20.2822 55.6374 20.0552 55.5702 19.8555 55.4502C19.6558 55.3302 19.4899 55.1614 19.3735 54.9596C19.257 54.7578 19.1937 54.5298 19.1897 54.2968C19.1856 54.0639 19.2408 53.8337 19.3502 53.628L22.5198 47.6696L19.3502 41.712C19.2408 41.5063 19.1856 41.2761 19.1897 41.0432C19.1937 40.8102 19.257 40.5822 19.3735 40.3804C19.4899 40.1786 19.6558 40.0098 19.8555 39.8898C20.0552 39.7698 20.2822 39.7025 20.515 39.6944L27.2598 39.46L30.835 33.736C30.9584 33.5383 31.13 33.3752 31.3338 33.2621C31.5376 33.149 31.7668 33.0897 31.9998 33.0897C32.2329 33.0897 32.4621 33.149 32.6659 33.2621C32.8696 33.3752 33.0413 33.5383 33.1646 33.736L36.7398 39.46L41.7278 39.6336L25.5414 55.82Z" fill="#FFF48C"/>
<path d="M27.2598 39.46L30.835 33.736C30.9584 33.5383 31.13 33.3752 31.3338 33.2621C31.5376 33.149 31.7668 33.0897 31.9998 33.0897C32.2329 33.0897 32.4621 33.149 32.6659 33.2621C32.8696 33.3752 33.0413 33.5383 33.1646 33.736L36.7398 39.46L43.4846 39.6944C43.7175 39.7025 43.9444 39.7698 44.1441 39.8898C44.3438 40.0098 44.5097 40.1786 44.6262 40.3804C44.7427 40.5822 44.8059 40.8102 44.81 41.0432C44.8141 41.2761 44.7588 41.5063 44.6494 41.712L41.4798 47.6696L44.6494 53.628C44.7588 53.8337 44.8141 54.0639 44.81 54.2968C44.8059 54.5298 44.7427 54.7578 44.6262 54.9596C44.5097 55.1614 44.3438 55.3302 44.1441 55.4502C43.9444 55.5702 43.7175 55.6374 43.4846 55.6456L36.7398 55.8792L33.1646 61.604C33.0411 61.8015 32.8695 61.9645 32.6657 62.0774C32.4619 62.1903 32.2328 62.2496 31.9998 62.2496C31.7669 62.2496 31.5377 62.1903 31.334 62.0774C31.1302 61.9645 30.9585 61.8015 30.835 61.604L27.2598 55.8792L20.515 55.6456C20.2822 55.6374 20.0552 55.5702 19.8555 55.4502C19.6558 55.3302 19.4899 55.1614 19.3735 54.9596C19.257 54.7578 19.1937 54.5298 19.1897 54.2968C19.1856 54.0639 19.2408 53.8337 19.3502 53.628L22.5198 47.6696L19.3502 41.712C19.2408 41.5063 19.1856 41.2761 19.1897 41.0432C19.1937 40.8102 19.257 40.5822 19.3735 40.3804C19.4899 40.1786 19.6558 40.0098 19.8555 39.8898C20.0552 39.7698 20.2822 39.7025 20.515 39.6944L27.2598 39.46Z" stroke="#45413C" stroke-width="1.4" stroke-linecap="round" stroke-linejoin="round"/>
<path d="M30.1016 27.568C30.1016 27.0645 30.3016 26.5816 30.6576 26.2256C31.0136 25.8696 31.4965 25.6696 32 25.6696C32.5035 25.6696 32.9863 25.8696 33.3423 26.2256C33.6984 26.5816 33.8984 27.0645 33.8984 27.568V32.3128C33.8984 32.8163 33.6984 33.2991 33.3423 33.6551C32.9863 34.0112 32.5035 34.2112 32 34.2112C31.4965 34.2112 31.0136 34.0112 30.6576 33.6551C30.3016 33.2991 30.1016 32.8163 30.1016 32.3128V27.568Z" fill="#FFE500"/>
<path d="M32 25.6696C31.4965 25.6696 31.0136 25.8696 30.6576 26.2256C30.3016 26.5816 30.1016 27.0645 30.1016 27.568V30.768C30.1016 30.2645 30.3016 29.7816 30.6576 29.4256C31.0136 29.0696 31.4965 28.8696 32 28.8696C32.5035 28.8696 32.9863 29.0696 33.3423 29.4256C33.6984 29.7816 33.8984 30.2645 33.8984 30.768V27.568C33.8985 27.3186 33.8494 27.0717 33.7541 26.8414C33.6587 26.611 33.5189 26.4017 33.3426 26.2254C33.1663 26.0491 32.9569 25.9092 32.7266 25.8139C32.4962 25.7185 32.2493 25.6695 32 25.6696Z" fill="#FFF48C"/>
<path d="M30.1016 27.568C30.1016 27.0645 30.3016 26.5816 30.6576 26.2256C31.0136 25.8696 31.4965 25.6696 32 25.6696C32.5035 25.6696 32.9863 25.8696 33.3423 26.2256C33.6984 26.5816 33.8984 27.0645 33.8984 27.568V32.3128C33.8984 32.8163 33.6984 33.2991 33.3423 33.6551C32.9863 34.0112 32.5035 34.2112 32 34.2112C31.4965 34.2112 31.0136 34.0112 30.6576 33.6551C30.3016 33.2991 30.1016 32.8163 30.1016 32.3128V27.568Z" stroke="#45413C" stroke-width="1.4" stroke-linecap="round" stroke-linejoin="round"/>
</svg>

