<svg width="130" height="199" viewBox="0 0 130 199" fill="none" xmlns="http://www.w3.org/2000/svg">
<path d="M84.7842 47.3864L98.2857 33.8848L111.787 47.3864L98.2857 60.8879L84.7842 47.3864Z" fill="#59D2AE"/>
<path fill-rule="evenodd" clip-rule="evenodd" d="M93.3769 44.9314L103.81 34.4984C105.335 32.9732 107.808 32.9732 109.333 34.4984L119.766 44.9314C121.292 46.4567 121.292 48.9296 119.766 50.4548L109.333 60.8878C107.808 62.413 105.335 62.413 103.81 60.8878L93.3769 50.4548C91.8517 48.9296 91.8517 46.4567 93.3769 44.9314ZM95.8317 47.3863C95.6623 47.5557 95.6623 47.8305 95.8317 48L106.265 58.433C106.434 58.6025 106.709 58.6025 106.878 58.433L117.311 48C117.481 47.8305 117.481 47.5557 117.311 47.3863L106.878 36.9532C106.709 36.7838 106.434 36.7838 106.265 36.9532L95.8317 47.3863Z" fill="#453A8F"/>
<path d="M0 0H19.0941V19.0941H0V0Z" fill="#FAE54E"/>
<path fill-rule="evenodd" clip-rule="evenodd" d="M7.81088 4.3396H22.5654C24.7224 4.3396 26.471 6.0882 26.471 8.24521V22.9997C26.471 25.1567 24.7224 26.9053 22.5654 26.9053H7.81088C5.65388 26.9053 3.90527 25.1567 3.90527 22.9997V8.24521C3.90527 6.0882 5.65387 4.3396 7.81088 4.3396ZM7.81088 7.81125C7.57121 7.81125 7.37692 8.00554 7.37692 8.24521V22.9997C7.37692 23.2394 7.57121 23.4337 7.81088 23.4337H22.5654C22.8051 23.4337 22.9994 23.2394 22.9994 22.9997V8.24521C22.9994 8.00554 22.8051 7.81125 22.5654 7.81125H7.81088Z" fill="#453A8F"/>
<path d="M41.2287 110.279C41.2287 111.221 40.4651 111.984 39.5231 111.984C38.581 111.984 37.8174 111.221 37.8174 110.279C37.8174 109.337 38.581 108.573 39.5231 108.573C40.4651 108.573 41.2287 109.337 41.2287 110.279Z" fill="#453A8F"/>
<path d="M41.2287 116.419C41.2287 117.361 40.4651 118.125 39.5231 118.125C38.581 118.125 37.8174 117.361 37.8174 116.419C37.8174 115.477 38.581 114.714 39.5231 114.714C40.4651 114.714 41.2287 115.477 41.2287 116.419Z" fill="#453A8F"/>
<path d="M41.2287 122.56C41.2287 123.502 40.4651 124.265 39.5231 124.265C38.581 124.265 37.8174 123.502 37.8174 122.56C37.8174 121.618 38.581 120.854 39.5231 120.854C40.4651 120.854 41.2287 121.618 41.2287 122.56Z" fill="#453A8F"/>
<path d="M47.3694 110.279C47.3694 111.221 46.6057 111.984 45.6637 111.984C44.7217 111.984 43.958 111.221 43.958 110.279C43.958 109.337 44.7217 108.573 45.6637 108.573C46.6057 108.573 47.3694 109.337 47.3694 110.279Z" fill="#453A8F"/>
<path d="M47.3694 116.419C47.3694 117.361 46.6057 118.125 45.6637 118.125C44.7217 118.125 43.958 117.361 43.958 116.419C43.958 115.477 44.7217 114.714 45.6637 114.714C46.6057 114.714 47.3694 115.477 47.3694 116.419Z" fill="#453A8F"/>
<path d="M47.3694 122.56C47.3694 123.502 46.6057 124.265 45.6637 124.265C44.7217 124.265 43.958 123.502 43.958 122.56C43.958 121.618 44.7217 120.854 45.6637 120.854C46.6057 120.854 47.3694 121.618 47.3694 122.56Z" fill="#453A8F"/>
<path d="M53.51 110.279C53.51 111.221 52.7463 111.984 51.8043 111.984C50.8623 111.984 50.0986 111.221 50.0986 110.279C50.0986 109.337 50.8623 108.573 51.8043 108.573C52.7463 108.573 53.51 109.337 53.51 110.279Z" fill="#453A8F"/>
<path d="M53.51 116.419C53.51 117.361 52.7463 118.125 51.8043 118.125C50.8623 118.125 50.0986 117.361 50.0986 116.419C50.0986 115.477 50.8623 114.714 51.8043 114.714C52.7463 114.714 53.51 115.477 53.51 116.419Z" fill="#453A8F"/>
<path d="M53.51 122.56C53.51 123.502 52.7463 124.265 51.8043 124.265C50.8623 124.265 50.0986 123.502 50.0986 122.56C50.0986 121.618 50.8623 120.854 51.8043 120.854C52.7463 120.854 53.51 121.618 53.51 122.56Z" fill="#453A8F"/>
<path d="M114.943 174.611C115.207 174.595 115.384 174.877 115.254 175.107L106.315 190.919C106.19 191.139 105.876 191.146 105.742 190.932L96.5507 176.223C96.4168 176.008 96.5608 175.729 96.813 175.714L114.943 174.611Z" fill="#F69605"/>
<path fill-rule="evenodd" clip-rule="evenodd" d="M103.079 180.622C102.831 180.643 102.693 180.919 102.825 181.13L111.422 194.889C111.554 195.1 111.862 195.097 111.991 194.884L121.196 179.566C121.336 179.333 121.152 179.039 120.881 179.063L103.079 180.622ZM123.48 180.939L114.275 196.257C113.122 198.176 110.349 198.2 109.162 196.301L100.565 182.542C99.3786 180.644 100.616 178.162 102.846 177.967L120.649 176.408C123.09 176.194 124.742 178.839 123.48 180.939Z" fill="#453A8F"/>
</svg>

